<?xml version="1.0" standalone="no"?>
<!DOCTYPE svg PUBLIC "-//W3C//DTD SVG 1.1//EN" "http://www.w3.org/Graphics/SVG/1.1/DTD/svg11.dtd" >
<svg xmlns="http://www.w3.org/2000/svg" xmlns:xlink="http://www.w3.org/1999/xlink" version="1.1">
<metadata>
Created by FontForge 20201107 at Mon Jan  5 23:03:39 2026
 By 
Copyright (c) 2018 by Valentin Papon. All rights reserved.
</metadata>
<defs>
<font id="Compagnon-LightItalic" horiz-adv-x="1228" >
  <font-face 
    font-family="Compagnon Light Italic"
    font-weight="400"
    font-style="italic"
    font-stretch="normal"
    units-per-em="2048"
    panose-1="0 0 5 0 0 0 0 0 0 0"
    ascent="1638"
    descent="-410"
    x-height="905"
    cap-height="1209"
    bbox="-85 -372 2244 1585"
    underline-thickness="102"
    underline-position="-204"
    slope="-12"
    unicode-range="U+0020-FB02"
  />
<missing-glyph 
 />
    <glyph glyph-name=".notdef" 
 />
    <glyph glyph-name=".null" horiz-adv-x="0" 
 />
    <glyph glyph-name="nonmarkingreturn" horiz-adv-x="682" 
 />
    <glyph glyph-name="NULL" horiz-adv-x="0" 
 />
    <glyph glyph-name="NULL" horiz-adv-x="0" 
 />
    <glyph glyph-name="space" unicode=" " 
 />
    <glyph glyph-name="exclam" unicode="!" 
d="M791 1207l-223 -905h-42l160 905h105zM587 5q-28 -32 -73 -32q-43 -1 -74.5 30t-31.5 73t32 74.5t74 31.5q43 -1 74.5 -33t30.5 -73q-2 -42 -32 -71z" />
    <glyph glyph-name="quotedbl" unicode="&#x22;" 
d="M369 668l-38 50q90 50 144 123.5t61 159.5q-20 -16 -51 -22q-53 -9 -97 23.5t-55 87.5q-9 46 22.5 91.5t83.5 54.5q55 9 101 -26.5t63 -128.5q18 -103 -37 -212.5t-197 -200.5zM749 668l-37 50q90 50 144 123.5t61 159.5q-20 -16 -51 -22q-53 -9 -97 23.5t-55 87.5
q-9 46 22.5 91.5t83.5 54.5q55 9 101 -26.5t63 -128.5q18 -103 -37.5 -212.5t-197.5 -200.5z" />
    <glyph glyph-name="numbersign" unicode="#" 
d="M299 20h59l105 398h301l-102 -398h61l104 398h258v61h-241l76 285h249v61h-233l96 365h-63l-95 -365h-303l97 365h-62l-94 -365h-287v-61h269l-74 -285h-277v-61h258zM856 764l-74 -285h-303l76 285h301z" />
    <glyph glyph-name="dollar" unicode="$" 
d="M873 869q-1 55 39 85t93 22q-93 85 -258 92l-96 -454q10 -3 30 -11q26 -10 70.5 -25t68 -23.5t57 -23t51 -28.5t36 -34t25.5 -45.5t7 -56.5q1 -87 -67 -150.5t-163.5 -92t-199.5 -29.5q-4 0 -12 0.5t-13 0.5l-26 -124h-59l28 130q-85 13 -165.5 44.5t-142 85.5t-62.5 116
q-1 73 29.5 110.5t77.5 39.5q45 2 78.5 -30t32.5 -75q-1 -52 -38 -88t-89 -23q43 -43 123.5 -76.5t166.5 -46.5l90 419q-22 8 -62 22t-58.5 20.5t-48.5 19.5t-44 23.5t-32.5 27.5t-26.5 36t-13.5 45t-5.5 58q1 86 61 154t151.5 103.5t194.5 38.5l18 83h58l-18 -84
q140 -10 238 -72t99 -163q1 -49 -28.5 -88t-89.5 -40q-34 -1 -69 27.5t-36 79.5zM350 830q0 -43 8.5 -69t37.5 -46.5t58.5 -32.5t96.5 -34q29 -10 45 -15l93 435q-78 -5 -152 -30.5t-130.5 -80t-56.5 -127.5zM939 367q0 25 -6.5 44t-22.5 34.5t-33 26.5t-47 22.5t-54 19.5
t-66 21t-71 23l-86 -405q3 0 8 -0.5t7 -0.5q56 -1 117 10.5t120 35.5t96.5 68t37.5 101z" />
    <glyph glyph-name="percent" unicode="%" 
d="M743 965q-21 0 -75 16l-6 -4q-4 -84 -42.5 -164t-112.5 -136t-167 -56q-64 0 -110 52t-46 126q0 154 94.5 263t227.5 109q47 0 87.5 -31.5t57.5 -82.5l2 -2q45 -22 92 -25q73 -6 135.5 44.5t127.5 156.5l53 -31l-866 -1466l-54 30l725 1231q-70 -30 -123 -30zM598 995
q0 47 -27 80t-65 33q-106 0 -182 -90.5t-76 -218.5q0 -47 27.5 -81t64.5 -34q106 0 182 91t76 220zM944 526q64 0 110 -52t46 -124q0 -155 -94 -266t-226 -111q-66 0 -111.5 52t-45.5 125q0 154 94.5 265t226.5 111zM944 461q-107 0 -182.5 -90.5t-75.5 -220.5
q0 -46 28 -78.5t66 -32.5q107 0 182.5 90.5t75.5 220.5q0 46 -28 78.5t-66 32.5z" />
    <glyph glyph-name="ampersand" unicode="&#x26;" 
d="M1092 932q53 -12 95.5 -65.5t38.5 -112.5q0 -187 -186 -213l-157 -23q73 -86 73 -228q0 -73 -28 -130t-72.5 -92t-107.5 -57.5t-126.5 -31t-134.5 -8.5q-80 0 -159 29.5t-142.5 80t-103 127t-39.5 163.5q0 145 116.5 250t307.5 141q-110 16 -167.5 69t-57.5 117
q0 88 53 155.5t133 100.5t170 33q70 0 133 -17.5t105.5 -53t45.5 -82.5q4 -52 -31.5 -89t-81.5 -37q-52 0 -86 36t-34 78q-1 28 7.5 48t31.5 45q-44 9 -86 10q-70 -1 -136.5 -24.5t-115 -75.5t-48.5 -121q1 -48 48.5 -85t128.5 -56q86 -20 230 -20l-1 -61
q-76 0 -153.5 -10.5t-160.5 -37t-146 -66t-104 -104t-41 -145.5q0 -97 61.5 -176.5t148.5 -119.5t176 -41q64 0 117.5 6t109 24t93.5 46t62.5 76.5t23.5 112.5q-1 69 -16.5 106.5t-62.5 104.5l-111 -16q-209 -29 -223 -148l-52 31q5 53 48.5 92.5t94 57.5t107.5 26l356 51
q70 10 99.5 52t29.5 96q0 53 -28 82.5t-84 50.5z" />
    <glyph glyph-name="quotesingle" unicode="'" 
d="M563 668l-38 50q90 50 144 123.5t61 159.5q-18 -14 -51 -21q-53 -9 -97 23.5t-55 87.5q-9 46 23 91.5t84 54.5q55 9 100.5 -27t62.5 -129q18 -103 -37 -212.5t-197 -200.5z" />
    <glyph glyph-name="parenleft" unicode="(" 
d="M730 -281l-55 -31q-70 164 -85.5 364.5t31.5 422.5q40 179 153 389.5t243 348.5l45 -43q-144 -156 -242 -345t-141 -375t-29 -380t80 -351z" />
    <glyph glyph-name="parenright" unicode=")" 
d="M501 1191l55 30q70 -164 85.5 -364.5t-31.5 -422.5q-40 -178 -153 -389t-244 -349l-44 43q144 156 242 345t141 375t29 380.5t-80 351.5z" />
    <glyph glyph-name="asterisk" unicode="*" 
d="M514 632l118 236l-261 -15l-5 59l261 15l-140 216l51 32l140 -212l118 231l54 -27l-118 -238l263 17l3 -59l-261 -17l140 -211l-51 -35l-140 216l-116 -235z" />
    <glyph glyph-name="plus" unicode="+" 
d="M174 410h410v-410h61v410h410v61h-410v410h-61v-410h-410v-61z" />
    <glyph glyph-name="comma" unicode="," 
d="M367 -311l-28 55q97 34 162.5 97.5t87.5 146.5q-24 -13 -54 -13q-54 0 -91.5 40t-38.5 96q-1 47 38 86.5t92 39.5q56 0 95 -44t39 -138q0 -105 -73.5 -203t-228.5 -163z" />
    <glyph glyph-name="hyphen" unicode="-" 
d="M1061 471h-881v-61h881v61z" />
    <glyph glyph-name="period" unicode="." 
d="M538 -25q-56 0 -95.5 40t-39.5 96q0 57 39.5 97t95.5 40q57 0 97.5 -40t40.5 -97q0 -56 -40.5 -96t-97.5 -40z" />
    <glyph glyph-name="slash" unicode="/" 
d="M1075 1196l-872 -1223l-47 39l872 1223z" />
    <glyph glyph-name="zero" unicode="0" 
d="M1101 605q-27 -126 -83 -239t-134.5 -201.5t-183.5 -140.5t-221 -51q-89 1 -160.5 34t-115.5 91.5t-70.5 137.5t-26 171.5t18.5 194.5q35 171 122 314t219.5 231t280.5 87q91 -1 162.5 -34.5t116 -91t70.5 -136t25 -171t-20 -196.5zM189 605q-36 -154 -14.5 -284.5
t100.5 -207.5q82 -79 217 -79q123 0 237.5 80t194.5 209.5t116 283.5q22 93 23.5 178t-19 156t-60 123t-103.5 80.5t-146 27.5q-100 -1 -192.5 -51t-161.5 -131.5t-119 -180.5t-73 -204z" />
    <glyph glyph-name="one" unicode="1" 
d="M598 61h411l-15 -61h-953l14 61h480l238 1067q-17 -52 -88.5 -145t-118.5 -137q-101 -93 -210 -150.5t-207 -56.5l-25 52q214 17 401 199q82 79 129.5 148.5t81.5 170.5h116z" />
    <glyph glyph-name="two" unicode="2" 
d="M27 0q12 55 24 99t27.5 83t29 68.5t36 58t40.5 48.5t50 42.5t57.5 38t70.5 37t80.5 37.5t95.5 41q91 38 139.5 59t109 48.5t89 43.5t64.5 39t51 39.5t32.5 40.5t25.5 48t14 55q11 44 5 79t-17.5 61t-36 45t-51.5 31.5t-62.5 20t-70 10t-73.5 2.5q-134 -1 -249 -58
t-186 -163q65 32 111 -6t46 -85q0 -57 -40 -88.5t-95 -32.5q-49 -1 -79.5 44.5t-18.5 115.5q16 95 101 173t198 119t224 40q62 0 117.5 -10t108 -32t85 -57.5t48.5 -87t0 -120.5q-11 -47 -29 -85.5t-35 -67.5t-58.5 -59.5t-68.5 -49.5t-96 -50t-110 -48.5t-141 -57.5
q-25 -10 -37 -15q-133 -52 -172 -72q-167 -86 -235 -239q-23 -52 -37 -113q102 92 242 92q20 0 40.5 -3t33.5 -5.5t35.5 -11t29.5 -11.5t33.5 -15.5t31.5 -14.5q6 -3 23 -10.5t24 -10.5t22.5 -10t23.5 -10t22 -8t23 -7.5t20 -5.5t20.5 -4t18.5 -1q217 0 274 318l63 -5
q-44 -193 -117 -283.5t-220 -90.5q-58 0 -106.5 18t-107.5 51q-42 20 -63.5 29.5t-57.5 19.5t-66 10q-113 0 -260 -101h-64z" />
    <glyph glyph-name="three" unicode="3" 
d="M199 258q-2 -72 43 -124t113.5 -76t148.5 -24q171 0 311.5 105t171.5 250q32 150 -43 236.5t-254 99.5l-69 -59l-46 44l516 438h-631l-143 -320l-61 15l162 366l778 -1l-11 -63l-433 -367q162 -22 247 -121t50 -268q-26 -121 -107 -215.5t-199 -148.5q-113 -52 -239 -52
q-80 0 -153 23.5t-126 67.5t-74.5 106.5t1.5 141.5q20 67 54 100.5t74 34.5q52 -1 89 -36.5t37 -83.5q0 -50 -39 -81t-92 -32q-28 -1 -49.5 12t-26.5 32z" />
    <glyph glyph-name="four" unicode="4" 
d="M713 258h-676l16 78l650 871l76 2l-664 -890h610l79 386h64l-82 -386h338l-12 -61h-338l-54 -258h-63z" />
    <glyph glyph-name="five" unicode="5" 
d="M1099 1148h-607l-99 -453q169 91 327 91q134 0 223 -63.5t94 -179.5q7 -153 -61.5 -285.5t-186.5 -208.5t-253 -76q-112 0 -203.5 43t-137 123.5t-18.5 179.5q38 126 125 128q55 -1 93 -34.5t38 -75.5q1 -57 -40 -89.5t-76 -33.5q-22 -1 -32.5 -0.5t-29 10.5t-29.5 32
q0 -59 28 -103.5t74.5 -68.5t100 -35.5t114.5 -11.5q115 0 219 72t163.5 191.5t50.5 247.5q-6 87 -77 132t-176 45q-38 0 -70.5 -4t-54.5 -8t-54.5 -16.5t-48 -19.5t-58 -27.5t-63.5 -30.5h-59l122 590h674z" />
    <glyph glyph-name="six" unicode="6" 
d="M860 1236q157 1 237 -77.5t53 -202.5q-32 -131 -145 -133q-43 -1 -75.5 35.5t-32.5 82.5q2 42 34 79.5t72 38.5q58 4 96 -34q-10 72 -76.5 110.5t-174.5 39.5q-106 1 -204 -46.5t-172.5 -128t-129 -180t-83.5 -208.5q71 52 149.5 89.5t153.5 56t149 22t135 -12t112 -47
t80.5 -82t39.5 -117t-11 -152.5q-25 -116 -103 -206.5t-192 -140.5q-115 -49 -236 -49q-89 0 -159.5 33t-113.5 90.5t-68.5 134t-24.5 163.5t19 179q30 139 89.5 258.5t143.5 210t197 142.5t241 52zM1006 369q14 69 9.5 125t-29 96.5t-61.5 68.5t-87.5 41t-106.5 15
t-119 -10.5t-125.5 -35t-126 -58.5t-119.5 -82q-11 -79 -10.5 -152t22.5 -136t59 -110t97.5 -74.5t138.5 -27.5q103 1 199.5 46t167.5 120q70 76 91 174z" />
    <glyph glyph-name="seven" unicode="7" 
d="M413 1148l-73 -347h-64l85 408h769v-66l-624 -1170l-51 29l602 1146h-644z" />
    <glyph glyph-name="eight" unicode="8" 
d="M1084 909q-47 -141 -212 -233q110 -65 144 -155.5t4 -191.5q-37 -146 -183 -252t-338 -106q-142 0 -236 54.5t-126 138t-7 180.5t106.5 186.5t210.5 147.5q-140 101 -137 231q8 131 143.5 228.5t318.5 96.5q189 0 273 -97.5t39 -227.5zM651 700q133 0 230.5 61t135.5 148
q17 39 19 77t-13.5 71.5t-47 58.5t-85 40t-123.5 16q-155 1 -271.5 -81t-124.5 -182q-6 -87 67 -148t213 -61zM958 332q9 49 6 95.5t-27 87.5t-61 71.5t-97.5 47.5t-134.5 15q-84 2 -165 -28t-138.5 -77.5t-96.5 -101t-50 -100.5q-29 -124 54 -216.5t268 -93.5
q92 0 188.5 42t166 112t87.5 146z" />
    <glyph glyph-name="nine" unicode="9" 
d="M791 1234q89 0 159.5 -33t113.5 -90.5t68.5 -134t24.5 -163.5t-19 -179q-30 -139 -89.5 -258.5t-143.5 -210t-197 -142.5t-241 -52q-157 -1 -237 77.5t-53 202.5q15 61 48 96t97 36q43 1 75.5 -35.5t32.5 -82.5q-2 -42 -34 -79.5t-72 -38.5q-56 -4 -95 35
q10 -72 76 -110.5t174 -39.5q106 -1 204 46.5t172.5 128t129 180t83.5 208.5q-71 -52 -149.5 -89.5t-153.5 -56t-148.5 -22t-135 12t-112 47t-80 82t-39.5 117t11 152.5q25 116 102.5 206.5t191.5 140.5q115 49 236 49zM322 838q-17 -89 -4.5 -156t55.5 -108t103 -62.5
t136.5 -19.5t156 22.5t162.5 63t155 100.5q11 79 10.5 151.5t-22.5 136t-59 110.5t-97.5 74t-138.5 27q-103 -1 -199.5 -45.5t-167.5 -119.5q-69 -75 -90 -174z" />
    <glyph glyph-name="colon" unicode=":" 
d="M653 514q-53 0 -92 39t-39 90t39 90t92 39t91 -38.5t38 -90.5t-38 -90.5t-91 -38.5zM547 -25q-53 0 -92 38.5t-39 90.5t39 90.5t92 38.5t91 -38.5t38 -90.5t-38 -90.5t-91 -38.5z" />
    <glyph glyph-name="semicolon" unicode=";" 
d="M600 526q-56 0 -96 40t-40 96q0 57 40 97t96 40q57 0 97 -40t40 -97q0 -56 -40 -96t-97 -40zM402 -311l-29 55q97 34 163 97.5t88 146.5q-24 -13 -54 -13q-54 0 -91.5 40t-38.5 96q-1 47 38 86.5t92 39.5q56 0 95 -44t39 -138q0 -105 -73.5 -203t-228.5 -163z" />
    <glyph glyph-name="less" unicode="&#x3c;" 
d="M135 502v-76l836 -453l28 56l-804 436l804 434l-28 55z" />
    <glyph glyph-name="equal" unicode="=" 
d="M141 668v-62h946v62h-946zM141 274v-61h946v61h-946z" />
    <glyph glyph-name="greater" unicode="&#x3e;" 
d="M1094 502l-836 452l-29 -55l805 -434l-805 -436l29 -56l836 453v76z" />
    <glyph glyph-name="question" unicode="?" 
d="M596 300h-64q21 74 54 133t77 103t86.5 74.5t99.5 62.5q88 49 127.5 108t38.5 136q-1 111 -87.5 183.5t-209.5 71.5q-143 -1 -252 -69t-129 -162q42 15 74 -7t32 -78q0 -32 -26 -51t-53 -19q-43 0 -69 31t-27 78q-1 141 137.5 241.5t312.5 97.5q152 -2 254.5 -93.5
t103.5 -223.5q2 -191 -192 -292q-233 -123 -288 -325zM612 5q-26 -30 -74 -32q-42 -1 -73 29.5t-32 73.5q-1 42 31 74.5t74 31.5q44 -2 75.5 -33.5t30.5 -72.5q-2 -42 -32 -71z" />
    <glyph glyph-name="at" unicode="@" horiz-adv-x="1226" 
d="M973 -68l37 -49q-177 -213 -439 -213q-126 0 -228.5 49t-170 133.5t-103.5 197.5t-36 243q0 172 64 333.5t169 279t247.5 188.5t293.5 71q197 0 312.5 -118t115.5 -326q0 -115 -36.5 -235.5t-91.5 -210.5t-121 -147.5t-122 -57.5q-50 0 -81.5 45.5t-37.5 124.5
q-119 -170 -256 -170q-100 0 -152 73t-52 174q0 106 55 223t153 201t205 84q119 0 185 -88l16 27l62 -39q-80 -174 -114 -282t-34 -189q0 -117 57 -117q35 0 85 47t98 121.5t82 184.5t34 221q0 188 -96 289.5t-266 101.5q-184 0 -346 -110.5t-259.5 -298t-97.5 -402.5
q0 -154 50.5 -279.5t154.5 -203.5t246 -78q107 0 203 42.5t166 114.5zM489 139q51 0 96 26.5t78.5 66.5t65 102.5t52.5 119t44 130.5q11 37 29 82q-16 44 -48 66t-91 22q-73 0 -142 -45t-115 -112.5t-74 -144.5t-28 -143q0 -71 31.5 -120.5t101.5 -49.5z" />
    <glyph glyph-name="A" unicode="A" 
d="M958 61h141l-13 -61h-327l13 61h125v431h-394l-263 -431h110l-12 -61h-307l14 61h126l659 1087h-24q-50 0 -92.5 -10t-69.5 -25.5t-45 -36t-18 -41.5t11 -42l32 -49l-46 -42l-37 56q-20 31 -22 65.5t16.5 67t52.5 59t91 43t127 16.5h152v-1148zM540 553h357v585z" />
    <glyph glyph-name="B" unicode="B" 
d="M880 634q116 -23 174 -83t54 -155q-10 -209 -128 -302.5t-390 -93.5h-536l12 61h128l230 1087h-1q-50 0 -92.5 -10t-69.5 -25.5t-45 -36t-18 -41.5t11 -42l32 -49l-46 -42l-37 56q-20 31 -22 65.5t16.5 67t52.5 59t91 43t127 16.5h373q360 -2 371 -265
q4 -115 -77.5 -202.5t-209.5 -107.5zM486 1148l-98 -487h305q178 0 294 76.5t119 206.5q3 110 -85 158.5t-242 47.5h-267v-2h-26zM1047 393q2 59 -28 102t-83 65t-110 32t-121 10h-331l-116 -541h339q237 0 340 77.5t110 254.5z" />
    <glyph glyph-name="C" unicode="C" 
d="M1074 312q-87 -153 -217.5 -246t-278.5 -93q-200 0 -322.5 124t-122.5 328q1 151 51.5 297.5t135 259.5t204.5 182.5t250 69.5q162 -1 260 -79.5t99 -223.5q1 -79 -42 -134t-106 -60q-42 -4 -81 27.5t-36 93.5q2 45 38 80t77 33q30 -1 52 -10.5t27 -21.5q8 95 -61 163.5
t-222 69.5q-119 0 -228.5 -65t-186.5 -171t-123.5 -241t-48.5 -272q2 -176 107 -282.5t283 -106.5q129 0 252.5 92t185.5 216z" />
    <glyph glyph-name="D" unicode="D" 
d="M646 1209q289 0 441 -185q121 -147 120 -365q-1 -209 -112 -384q-119 -186 -314 -248q-84 -27 -176 -27h-566l15 61h214l228 1087h-52q-50 0 -92.5 -10t-69.5 -25.5t-45 -36t-18 -41.5t11 -42l32 -49l-47 -42l-37 56q-20 31 -22 65.5t16.5 67t53 59t91.5 43t127 16.5h202
zM602 61q221 0 374 162q128 136 161 331q34 200 -50 357q-94 178 -305 223q-65 14 -138 14h-79l-226 -1087h263z" />
    <glyph glyph-name="E" unicode="E" 
d="M1256 1209l-89 -430h-64l77 369h-561l-103 -514h332l32 145h64l-89 -391h-64l42 185h-329l-103 -512h550l81 376l62 -7l-91 -430h-868l15 61h189l219 1087h-133q-46 0 -82 -25t-53.5 -58.5t-25 -63t-3.5 -43.5h-62q-4 24 7.5 64t36.5 82.5t73 73.5t109 31h831z" />
    <glyph glyph-name="F" unicode="F" 
d="M1234 1209l-89 -430h-64l77 369h-566l-103 -514h332l32 145h64l-89 -391h-64l42 185h-329l-103 -512h304l-27 -61h-651l15 61h297l219 1087h-133q-45 0 -80 -25t-52.5 -58.5t-26 -63t-6.5 -43.5h-61q-2 19 5 48.5t24 65t42.5 66t66 51t88.5 20.5h836z" />
    <glyph glyph-name="G" unicode="G" 
d="M769 543h413l-17 -61h-162l-108 -482h-64l32 142q-37 -52 -147 -110.5t-205 -58.5q-201 0 -323.5 124t-121.5 328q0 119 39 239.5t108 221.5t157 180t193.5 123.5t210.5 44.5q165 -1 258 -69t94 -211q2 -78 -36.5 -120t-104.5 -45q-37 -2 -68.5 28t-31.5 70
q0 46 28.5 76.5t69.5 29.5q30 -1 52 -10.5t27 -21.5q-4 106 -65.5 158t-217.5 53q-120 0 -240.5 -65.5t-211 -170t-147 -241.5t-55.5 -272q2 -176 107 -283t284 -106q76 0 183.5 59.5t184.5 143.5l55 245h-187z" />
    <glyph glyph-name="H" unicode="H" 
d="M899 1209h431l-13 -61h-182l-218 -1087h186l-12 -61h-435l12 61h187l103 512h-627l-102 -512h186l-12 -61h-435l12 61h187l219 1087h-187l12 61h430l-12 -61h-182l-103 -514h627l103 514h-187z" />
    <glyph glyph-name="I" unicode="I" 
d="M578 61h373l-12 -61h-806l12 61h371l219 1087h-430l12 61h863l-13 -61h-371z" />
    <glyph glyph-name="J" unicode="J" 
d="M135 278q-1 78 43 129.5t73 56.5q-17 -38 6 -76t62 -39q49 -1 76 27.5t25 68.5q-2 37 -32 63.5t-76 27.5q-93 2 -163 -66.5t-75 -194.5q-5 -118 93.5 -210.5t257.5 -91.5q100 1 177 34t142 109t114.5 201t87.5 307l111 524h290l15 59h-770l-14 -59h417l-113 -524
q-70 -325 -176 -458t-281 -132q-131 1 -209.5 73.5t-80.5 170.5z" />
    <glyph glyph-name="K" unicode="K" 
d="M912 1209h450l-15 -61h-187l-588 -494q33 -79 65.5 -159.5t52.5 -132t41 -103t33 -81.5t27.5 -58.5t26.5 -42t26.5 -25t31.5 -15t38 -3.5q64 -1 98 43t72 152l59 -16q-18 -69 -47 -119t-61.5 -74.5t-61 -35.5t-56.5 -11q-29 0 -51.5 3.5t-43 17t-35.5 28t-34 46.5t-33 62
t-37 85t-42.5 105t-53.5 133.5t-65 158.5l-263 -221l-70 -330h180l-13 -61h-430l13 61h189l231 1087l-185 -3l13 64h432l-14 -61h-185l-139 -657l783 657h-167z" />
    <glyph glyph-name="L" unicode="L" 
d="M968 1025q-39 76 -101 112t-132 35q-94 -1 -170.5 -65.5t-102.5 -184.5l-182 -861h647l66 332l61 -7l-76 -386h-936l12 61h162l187 873q29 143 123.5 221t210.5 79q84 1 158.5 -42t121.5 -130z" />
    <glyph glyph-name="M" unicode="M" 
d="M1143 1209h236l-15 -61h-123l-231 -1087h133l-13 -61h-321l12 61h128l231 1087l-566 -1148h-93l-79 1148l-231 -1087h123l-12 -61h-315l13 61h130l231 1087h-34q-46 0 -82 -25t-53.5 -58.5t-25 -63t-4.5 -43.5h-62q-3 25 8.5 64.5t36.5 82t73.5 73.5t108.5 31h154
l79 -1138z" />
    <glyph glyph-name="N" unicode="N" 
d="M944 1209h390l-12 -61h-162l-241 -1148h-96l-300 1148l-231 -1087h155l-12 -61h-334l12 61h118l231 1087h-45q-45 0 -80 -25t-52.5 -58.5t-26 -63t-6.5 -43.5h-62q-2 24 10 63.5t36.5 82t71 73.5t104.5 32h163l294 -1146l230 1085h-168z" />
    <glyph glyph-name="O" unicode="O" 
d="M1130 605q-27 -126 -83 -239t-134.5 -201.5t-183.5 -140.5t-221 -51q-89 1 -160.5 34t-115.5 91.5t-70.5 137.5t-26 171.5t18.5 194.5q35 171 122 314t219.5 231t280.5 87q91 -1 162.5 -34.5t116 -91t70.5 -136t25 -171t-20 -196.5zM218 605q-36 -154 -14.5 -284.5
t100.5 -207.5q82 -79 216 -79q123 0 237.5 80t194.5 209.5t116 283.5q22 93 23.5 178t-19 156t-60 123t-103.5 80.5t-146 27.5q-100 -1 -192.5 -51t-161.5 -131.5t-118.5 -180.5t-72.5 -204z" />
    <glyph glyph-name="P" unicode="P" 
d="M1209 858q1 -166 -120.5 -266t-380.5 -100h-285l-91 -431h199l-12 -61h-445l12 61h184l231 1087h-59q-50 0 -92.5 -10t-69.5 -25.5t-45 -36t-18 -41.5t11 -42l32 -49l-47 -42l-37 56q-20 31 -22 65t16 66.5t52 59.5t90 43t125 17h322q118 0 206.5 -28t140.5 -77
t77.5 -110.5t25.5 -135.5zM1148 860q6 122 -91 204.5t-310 83.5h-184l-126 -595h286q409 0 425 307z" />
    <glyph glyph-name="Q" unicode="Q" 
d="M1101 605q-44 -203 -158 -366.5t-274 -228.5q-20 -115 15 -185.5t102 -70.5q71 0 136 77.5t108 212.5l56 -18q-47 -156 -126 -244.5t-174 -88.5q-93 0 -141.5 80t-35.5 217q-63 -17 -130 -17q-89 1 -160.5 34t-115.5 91.5t-70.5 137.5t-26 171.5t18.5 194.5
q35 171 122 314t219.5 231t280.5 87q91 -1 162.5 -34.5t116 -91t70.5 -136t25 -171t-20 -196.5zM189 605q-35 -150 -15.5 -277.5t92.5 -205.5q41 144 120.5 232.5t176.5 87.5t131.5 -103.5t-6.5 -250.5q124 69 218.5 209.5t133.5 309.5q22 93 23.5 178t-19 156t-60 123
t-103.5 80.5t-146 27.5q-100 -1 -192.5 -51t-161.5 -131.5t-119 -180.5t-73 -204zM492 34q64 0 127 23q1 3 2 7t1 7q13 61 18 114.5t0.5 98.5t-25 71.5t-55.5 25.5q-77 -1 -145 -87t-98 -213q75 -47 175 -47z" />
    <glyph glyph-name="R" unicode="R" 
d="M1086 229l60 -16q-18 -69 -47.5 -119t-62 -74.5t-61 -35.5t-56.5 -11t-49.5 3t-41.5 15.5t-34.5 25t-33 43t-31.5 56t-34.5 77.5t-38.5 95t-48 120.5t-58 142.5l-244 2l-104 -492h199l-13 -61h-445l13 61h184l231 1085q-108 -9 -158.5 -56.5t-19.5 -96.5l32 -49l-47 -42
l-37 56q-20 31 -22 65.5t16.5 67t53 59t91.5 43t127 16.5h271q202 -1 303.5 -85.5t97.5 -224.5q-2 -68 -28.5 -127.5t-79 -109.5t-143.5 -79.5t-210 -31.5q26 -63 53.5 -132t43 -110t34 -85.5t29 -68t24.5 -48.5t24.5 -36t25 -21t29.5 -13t36 -3q34 0 58.5 11t44.5 40t33 59
t33 85zM433 1148l-114 -534l283 -2q205 -1 310 83t105 207q0 117 -82 181t-269 65h-233z" />
    <glyph glyph-name="S" unicode="S" 
d="M944 307q0 -61 -27.5 -110t-70.5 -79t-98 -50t-106 -27.5t-99 -6.5q-105 2 -220.5 42.5t-172.5 97.5q56 -14 96.5 25.5t41.5 95.5q1 47 -36 81t-85 32q-50 -2 -83 -42t-32 -120q1 -60 54 -113.5t130 -87t158.5 -53t146.5 -19.5q66 0 130.5 11.5t125.5 37.5t107 64t74 95
t27 126q1 58 -25 106.5t-77 86.5t-106 65.5t-133 56.5q-197 74 -251 104q-78 44 -97 108q-9 30 -9 73q0 65 38.5 117.5t99 83.5t126 47t127.5 17q207 2 317 -100q-57 9 -100.5 -24t-42.5 -92q1 -55 39 -86t74 -30q65 1 97 43t31 95q0 80 -61 140t-153.5 88.5t-198.5 27.5
q-114 -1 -216 -39t-169.5 -114t-68.5 -174q0 -47 9 -85t33 -68t47.5 -51t69.5 -43.5t79.5 -36t96.5 -36.5q73 -27 119 -46t98 -46.5t80.5 -53t47.5 -60.5t18 -74z" />
    <glyph glyph-name="T" unicode="T" 
d="M794 0l12 61h-246l234 1087h408l-89 -411h62l100 472h-1002l-99 -472h62l86 411h408l-234 -1087h-245l-13 -61h556z" />
    <glyph glyph-name="U" unicode="U" 
d="M511 -27q-168 0 -261 110.5t-58 282.5l164 782h-186l14 61h430l-14 -61h-180l-167 -782q-34 -157 43 -244.5t227 -87.5q144 0 262 92t151 243l175 779h-187l10 61h430l-10 -61h-179l-175 -779q-29 -130 -104 -221t-173 -133t-212 -42z" />
    <glyph glyph-name="V" unicode="V" 
d="M369 1148h-191l13 61h430l-13 -61h-178l3 -1072l661 1072h-191l13 61h438l-14 -61h-175l-708 -1148h-86z" />
    <glyph glyph-name="W" unicode="W" 
d="M253 1148h-94l13 61h248l-13 -61h-92v-1074l361 848h98v-846l433 1072h-97l13 61h243l-13 -61h-80l-464 -1148h-96v860l-362 -860h-98v1148z" />
    <glyph glyph-name="X" unicode="X" 
d="M76 61h165l378 548l-184 539h-179l14 61h349l-14 -61h-106l162 -477l327 477h-117l13 61h356l-13 -61h-163l-378 -548l186 -539h187l-14 -61h-361l13 61h109l-162 477l-329 -477h129l-13 -61h-369z" />
    <glyph glyph-name="Y" unicode="Y" 
d="M246 61h246l95 426l-196 658h-175l17 64h413l-14 -61l-180 -3l177 -587l433 587h-187l15 64h410l-15 -64h-150l-486 -658l-96 -426h248l-15 -61h-553z" />
    <glyph glyph-name="Z" unicode="Z" 
d="M813 0h-702v64l963 1081h-740l-110 -506h-62l121 568h870v-62l-956 -1084h616q85 0 141.5 19.5t79.5 51t29.5 69.5t-5.5 78.5t-28.5 74t-37.5 59.5l47 40q30 -34 51 -80t30.5 -97t-3 -100t-44 -88.5t-98.5 -63.5t-162 -24z" />
    <glyph glyph-name="bracketleft" unicode="[" 
d="M929 -186l13 57h-576l278 1303h575l13 61h-637l-303 -1421h637z" />
    <glyph glyph-name="backslash" unicode="\" 
d="M1112 12l-872 1223l-48 -39l873 -1222z" />
    <glyph glyph-name="bracketright" unicode="]" 
d="M334 1235l-13 -57h576l-278 -1303h-575l-13 -61h637l303 1421h-637z" />
    <glyph glyph-name="asciicircum" unicode="^" 
 />
    <glyph glyph-name="underscore" unicode="_" 
d="M993 -128v60h-737v-60h737z" />
    <glyph glyph-name="grave" unicode="`" 
d="M978 1022l-631 190l-20 -77l644 -154z" />
    <glyph glyph-name="a" unicode="a" 
d="M908 366q-27 -111 -34.5 -153.5t-7.5 -84.5q0 -91 59 -91q63 0 185 86l39 -47q-140 -101 -229 -101q-52 0 -84.5 43t-30.5 120q4 109 39 223q-50 -71 -85 -117.5t-84.5 -102.5t-91 -89t-91.5 -55.5t-99 -22.5q-114 0 -172.5 81t-57.5 210q0 83 23 171.5t68.5 172.5
t106.5 150.5t144.5 107t174.5 40.5q87 0 164 -19t174 -71l-4 -23zM948 782q-52 30 -104 44.5t-80.5 16.5t-78.5 2h-15q-94 0 -179 -56.5t-141.5 -143t-89.5 -187t-33 -190.5q0 -102 44 -166.5t131 -64.5q35 0 75 20t78.5 52t92.5 91.5t102 118t121 152.5z" />
    <glyph glyph-name="b" unicode="b" 
d="M1052 607q0 -114 -34 -219t-93 -185.5t-141 -137t-173.5 -79t-195.5 -4t-201 81.5q33 156 87 407q107 500 118 596q11 90 -15 102q-8 4 -21 3q-26 0 -82.5 -23.5t-116.5 -59.5l-29 54q159 91 231 91q71 1 88 -42q21 -51 -12 -230q-2 -13 -88 -426q68 86 115.5 139.5
t105.5 105.5t113.5 76t114.5 25q68 1 114.5 -19t70.5 -59.5t34 -86.5t10 -110zM285 101q74 -49 158 -61t161 8t148.5 70t123.5 120t83 163.5t31 195.5q0 128 -37 175t-135 49q-40 1 -85 -20.5t-85.5 -54t-94.5 -91t-97 -111.5t-107 -136z" />
    <glyph glyph-name="c" unicode="c" 
d="M949 206q-72 -104 -194 -168.5t-261 -64.5q-154 0 -246 94.5t-92 256.5q0 124 43 234t115 185.5t166.5 119.5t195.5 44q123 0 202.5 -56t79.5 -152q0 -137 -115 -139q-29 -1 -66 26.5t-36 73.5q1 60 37.5 90.5t89.5 23.5q-19 33 -75.5 52t-116.5 19q-84 0 -166 -38
t-147.5 -104t-106 -166t-40.5 -215q1 -132 76.5 -210t199.5 -78q127 0 234.5 58t180.5 158z" />
    <glyph glyph-name="d" unicode="d" 
d="M1089 167l29 -51q-150 -142 -250 -143q-37 0 -59.5 14.5t-29 38.5t-6.5 46.5t6 47.5l49 231q-45 -59 -67.5 -88t-62.5 -77.5t-64 -72.5t-60.5 -56t-65.5 -46.5t-64 -26t-70 -11.5q-131 1 -196.5 88t-64.5 214q0 53 18 120.5t50.5 138.5t82 138.5t107.5 120.5t132 84.5
t151 29.5q94 -2 280 -79l43 185q23 94 15.5 128t-42.5 32q-57 -3 -199 -84l-30 54q154 87 231 91q69 2 90.5 -48t-2.5 -172l-187 -844q-18 -78 -15.5 -105.5t30.5 -27.5q88 0 221 130zM917 757q-43 35 -126.5 63.5t-149.5 29.5q-84 2 -171 -59.5t-149.5 -151t-102 -189
t-39.5 -172.5q1 -115 61.5 -178t137.5 -63t190.5 107t291.5 350z" />
    <glyph glyph-name="e" unicode="e" 
d="M238 435q-12 -54 -12 -113q-1 -130 88.5 -209t223.5 -79q115 0 209.5 53.5t208.5 163.5l47 -45q-101 -99 -221.5 -166t-240.5 -67q-158 0 -267.5 96.5t-108.5 254.5q0 123 49.5 233t128.5 185.5t179 119.5t201 45q126 0 206 -54t79 -153q-1 -75 -49.5 -135.5
t-128.5 -96.5t-179 -54t-207 -12t-206 33zM725 845q-147 -1 -281.5 -96.5t-188.5 -253.5q82 -27 179 -33t186 9t163 45t118.5 78.5t44.5 105.5q0 71 -63 108t-158 37z" />
    <glyph glyph-name="f" unicode="f" 
d="M1030 1234q90 -1 157 -46.5t97 -110.5t27 -135q-1 -46 -30 -72t-66 -28q-41 -2 -74.5 28t-32.5 70q1 68 47 91.5t79 12.5q-3 38 -64.5 81.5t-137.5 46.5q-107 4 -209 -96q-49 -48 -77 -106.5t-55 -170.5h361l-15 -62h-360q-20 -96 -23 -113q-8 -38 -91 -501
q-16 -88 -35.5 -154.5t-48.5 -124t-66.5 -93.5t-90 -57t-118.5 -21q-101 -1 -166.5 59.5t-62.5 164.5q2 51 29.5 84t74.5 34q35 1 68 -24t34 -67q1 -68 -43 -96t-86 -15q35 -84 152 -81q58 2 102.5 21.5t74.5 51t53.5 83t38 105t28.5 130.5l91 501q5 32 22 113h-304l14 62
h303q29 127 62 194t95 128q116 114 246 113z" />
    <glyph glyph-name="g" unicode="g" 
d="M727 907q87 0 163.5 -18t176.5 -71l-5 -24l-108 -428q-11 -41 -33 -144.5t-43.5 -179t-49.5 -135.5q-26 -56 -57.5 -98t-82 -76.5t-113 -49t-152 -8.5t-197.5 38l17 61q113 -32 202 -36t149 18.5t99 59.5t66 91q38 77 78 242t55 212q-46 -63 -73.5 -98.5t-70.5 -88.5
t-75.5 -82.5t-73 -60.5t-79.5 -44.5t-78 -13.5q-116 0 -174.5 81t-56.5 211q1 83 24 171.5t68 172t105 150t143.5 107t175.5 41.5zM995 782q-54 30 -106.5 44.5t-80.5 16.5t-76 2h-14q-95 -1 -179.5 -57.5t-139.5 -143t-88 -185.5t-36 -191q-4 -102 40.5 -166.5t134.5 -64.5
q78 0 177.5 98t291.5 337z" />
    <glyph glyph-name="h" unicode="h" 
d="M1128 111q-151 -138 -258 -138q-36 0 -58.5 15.5t-29.5 39.5t-6.5 48.5t6.5 48.5l115 448q40 150 41 195q3 76 -56 77q-75 -1 -160 -61t-159 -154.5t-140.5 -207.5t-112.5 -223.5t-67 -198.5h-78l245 1030q18 83 10 113t-41 28q-57 -3 -199 -84l-29 55q155 88 231 90
q68 2 92 -44t0 -158l-194 -806q60 177 156 330t220 251.5t243 98.5q33 0 54.5 -13t30.5 -38.5t11.5 -55.5t-3.5 -73t-14.5 -80.5t-21.5 -88.5l-101 -385q-16 -59 -16.5 -89.5t9 -38t32.5 -8.5q80 1 206 120z" />
    <glyph glyph-name="i" unicode="i" 
d="M755 1036q-29 -30 -73 -32q-43 -2 -73.5 29.5t-32.5 74.5q-2 42 30 74t76 31q43 -1 76 -32.5t29 -72.5q-3 -42 -32 -72zM234 766q91 78 198 117.5t185.5 11.5t73.5 -136q-2 -42 -59.5 -161.5t-114.5 -242.5t-57 -176q-1 -76 52.5 -113t132 -33t169 39t162.5 93l39 -47
q-89 -74 -197.5 -112.5t-199.5 -35t-153.5 55.5t-63.5 146q0 55 34 143t76 164.5t78.5 156t39.5 118.5q6 84 -80 87q-83 2 -192 -61q-52 -30 -84 -62z" />
    <glyph glyph-name="j" unicode="j" 
d="M982 1030q-29 -30 -74 -32q-43 -2 -73 29t-32 74q-2 42 29.5 74.5t75.5 31.5q43 -1 76.5 -33t29.5 -73q-3 -41 -32 -71zM939 723l-79 -357q-40 -180 -90 -310.5t-100 -204.5t-112 -117t-114.5 -55.5t-119.5 -12.5q-122 0 -203 61.5t-84 154.5q-5 128 113 132
q29 1 65.5 -27t37.5 -83q1 -42 -32 -76t-88 -30q41 -39 70 -53q48 -22 121 -23q55 0 99 10.5t98.5 49.5t99 106.5t91 189t84.5 288.5l81 361q15 59 0.5 91t-61.5 32q-160 2 -295 -132l-44 43q141 149 344 146q70 -2 104 -47t14 -137z" />
    <glyph glyph-name="k" unicode="k" 
d="M1017 165l45 -35q-46 -83 -87.5 -120t-89.5 -37q-68 0 -112 52.5t-92 172.5q-28 69 -101 116t-197 47l-76 -361h-64l217 1025q17 88 10 119t-40 29q-57 -3 -199 -84l-29 54q154 87 231 91q68 2 90.5 -45.5t-0.5 -163.5l-118 -562l291 144q90 44 125 67t53 49
q-56 -18 -96.5 15.5t-40.5 82.5q0 28 11 49t28 31t31 15t25 6q42 5 78.5 -27.5t34.5 -112.5q-1 -36 -12 -66t-27 -50.5t-47 -41.5t-57 -34.5t-72 -34.5q-46 -23 -301 -143q119 6 199.5 -52.5t111.5 -142.5q37 -101 70.5 -141.5t76.5 -41.5q32 0 59 28t71 103z" />
    <glyph glyph-name="l" unicode="l" 
d="M1007 182q-66 -102 -139.5 -156t-167.5 -53q-28 0 -53.5 5.5t-54 18.5t-48 37.5t-32 59.5t-9.5 88.5t22 119.5l192 664q31 92 23 148.5t-67 57.5q-73 1 -190 -65.5t-169 -143.5l-34 45q50 85 175.5 155t222.5 66q51 -2 82 -27t42 -79.5t-16 -141.5l-194 -674
q-20 -70 -23.5 -122t6 -80.5t31 -45t43.5 -21t51 -4.5q142 1 255 180z" />
    <glyph glyph-name="m" unicode="m" 
d="M1037 173q-24 -91 -10 -121.5t91 -2.5l22 -55q-113 -49 -152 8t-12 182l98 462q25 117 17 155q-9 47 -55 46q-37 -1 -76 -53t-139 -224q-235 -406 -267 -570h-72l137 647q24 114 18 151q-7 50 -55 49q-73 -1 -213 -279q-24 -47 -103 -195.5t-117.5 -232.5t-49.5 -140
l-60 -1l148 705q5 22 7 36t4.5 32.5t0.5 30t-6 22.5t-13.5 15.5t-24.5 4.5q-16 -2 -38 -9l-16 59q98 28 133.5 -22.5t11.5 -178.5q-47 -240 -122 -518q17 37 59 131.5t75 164.5t63 125q13 24 34 64t32 60.5t29.5 51.5t30.5 47t30.5 35.5t35 29t38 16t45.5 6.5
q40 0 64.5 -25.5t33 -85.5t-13.5 -159l-88 -417l2 3q122 264 181 373q12 22 38.5 72t37 69t32.5 55t36.5 50t36.5 32.5t45 25t50 6.5q40 0 65 -27.5t32.5 -87.5t-13.5 -155z" />
    <glyph glyph-name="n" unicode="n" 
d="M1165 111q-151 -138 -258 -138q-36 0 -58.5 15.5t-29.5 39.5t-7 48.5t6 48.5l116 448q39 150 41 194q4 79 -56 78q-84 -1 -181.5 -81t-190.5 -212q-257 -368 -301 -552h-57l152 704q7 34 10 54t2.5 43.5t-12 34t-32.5 9.5q-57 -3 -199 -84l-30 54q154 87 232 91
q75 2 93 -56t-6 -156q-52 -265 -107 -470q97 210 213 373q221 307 431 307q33 0 54.5 -13t30.5 -38.5t11.5 -55.5t-3.5 -73t-14.5 -80.5t-21.5 -88.5l-101 -385q-16 -60 -16.5 -90.5t9.5 -38.5t32 -7q80 1 206 121z" />
    <glyph glyph-name="o" unicode="o" 
d="M489 -32q-179 0 -283.5 138t-62.5 331q30 131 114.5 239.5t199.5 169.5t234 61q117 0 207 -62.5t129 -171.5t10 -236q-30 -131 -114.5 -239.5t-199.5 -169t-234 -60.5zM501 29q95 0 195.5 55.5t176.5 150.5t100 202q39 177 -50.5 291.5t-249.5 116.5q-151 -2 -291.5 -123
t-175.5 -285q-39 -182 48.5 -294t246.5 -114z" />
    <glyph glyph-name="p" unicode="p" 
d="M1108 612q1 -83 -20 -171.5t-64 -172t-100.5 -150t-137.5 -106.5t-169 -39q-134 0 -298 69l-68 -310h195l-12 -59h-440l12 59h181l211 956q20 94 13.5 126.5t-40.5 30.5q-57 -3 -199 -83l-29 54q152 87 231 91q70 2 90 -47.5t-4 -173.5l-30 -140q72 86 110.5 131t83.5 93
t70.5 67.5t59 38.5t62 23.5t66.5 4.5q112 0 169 -81.5t57 -210.5zM334 106q51 -31 132 -51.5t151 -20.5q99 -1 183.5 56t137 145t82 189t27.5 193q-2 100 -46.5 162.5t-128.5 63.5q-24 0 -46 -4.5t-47.5 -19t-45.5 -27.5t-52 -45t-53 -54.5t-64 -74t-70 -85.5t-84 -105z" />
    <glyph glyph-name="q" unicode="q" 
d="M833 319q-42 -53 -61.5 -76.5t-55.5 -65.5t-55.5 -61t-50 -48t-53 -42t-51.5 -27.5t-57 -20t-58 -5.5q-69 0 -116.5 23t-72 65.5t-35 91.5t-10.5 112q0 64 22 146.5t66.5 170t103.5 160.5t142 120t173 47q155 0 339 -91l-244 -1145l-59 15zM931 782q-51 30 -125.5 47
t-144.5 19q-86 2 -170 -58t-142 -150.5t-94 -193.5t-36 -188q0 -119 41 -171.5t136 -52.5q82 0 191.5 101t277.5 329z" />
    <glyph glyph-name="r" unicode="r" 
d="M1196 708q1 -78 -29.5 -123t-92.5 -47q-40 -1 -70.5 30.5t-31.5 69.5q-2 66 49.5 98t108.5 4q3 34 -39.5 70t-95.5 35q-70 -1 -151 -59t-152 -147.5t-136.5 -196t-111.5 -205t-68 -173.5l179 -3l-14 -61h-390l13 61l153 3q69 345 94.5 487t24.5 210q0 46 -12 64.5
t-39 19.5q-59 1 -199 -88l-30 54q152 96 229 96q55 -1 81.5 -34.5t25.5 -111.5q0 -73 -22.5 -194.5t-73.5 -340.5q29 83 74.5 173.5t106.5 181.5t127.5 163t143 117.5t147.5 45.5q91 1 145.5 -57t55.5 -142z" />
    <glyph glyph-name="s" unicode="s" 
d="M565 37q131 0 209 51.5t76 127.5q-1 70 -64.5 115t-193.5 89q-137 46 -194 94.5t-61 144.5q-5 111 98 180t256 68q160 1 262 -61t103 -160q1 -40 -28.5 -65.5t-63.5 -25.5q-36 0 -63 25t-29 56q-2 36 17.5 65t62.5 37q-118 65 -264 67q-125 2 -206 -46.5t-84 -139.5
q-1 -66 42.5 -101.5t168.5 -78.5q168 -59 236.5 -116.5t66.5 -146.5q-2 -101 -95 -171t-254 -70q-174 0 -281.5 65t-111.5 166q-1 36 28.5 63.5t63.5 26.5q42 -1 67.5 -30t24.5 -56q-1 -41 -22 -66t-49 -30q40 -42 106.5 -59.5t175.5 -17.5z" />
    <glyph glyph-name="t" unicode="t" 
d="M703 34q144 -2 268 133l39 -49q-144 -144 -307 -145q-36 0 -65.5 3t-67.5 16.5t-65 37t-51.5 67.5t-34 104t-5 150.5t27.5 203.5l55 263h-300l12 62h300l73 354h69l-76 -354h440l-15 -62h-439l-57 -265q-28 -130 -30.5 -226t13.5 -150.5t52 -87.5t74 -43.5t90 -11.5z" />
    <glyph glyph-name="u" unicode="u" 
d="M64 770q150 137 258 137q36 0 58.5 -15.5t29.5 -39.5t6.5 -48.5t-6.5 -48.5l-115 -447q-39 -151 -41 -195q-4 -79 56 -78q83 1 180 81.5t191 212.5q259 370 302 551h57l-152 -704q-7 -34 -10 -54t-2.5 -43.5t12 -33.5t32.5 -9q26 2 81.5 25t117.5 58l29 -54
q-154 -87 -231 -91q-75 -2 -93.5 56.5t5.5 156.5q52 265 107 470q-99 -214 -212 -373q-222 -308 -432 -308q-33 0 -54.5 13t-30.5 38.5t-11.5 55t4 73t15 81t21.5 88.5l101 386q16 60 16.5 90t-9.5 38t-32 7q-81 -1 -206 -120z" />
    <glyph glyph-name="v" unicode="v" 
d="M1032 708q-10 -191 -82 -360t-184.5 -271t-234.5 -102q-48 0 -84 6t-59 20t-38 30.5t-19.5 42t-4.5 50.5t7 60t15 66.5t20 73.5q1 2 1 3l113 403q11 39 13.5 62.5t-4 34t-15 13.5t-24.5 3q-88 0 -216 -86l-30 52q150 95 256 95q132 0 84 -174l-118 -420q-6 -20 -16.5 -54
t-16.5 -52.5t-11 -45t-3 -41.5t10.5 -32.5t26.5 -26.5t48 -15t72 -6q107 0 207.5 107t161 261t69.5 303q-61 -43 -107 -35.5t-72.5 46.5t-24.5 90q0 29 31 63.5t72 34.5q74 1 116.5 -54.5t40.5 -144.5z" />
    <glyph glyph-name="w" unicode="w" 
d="M1194 708q0 -91 -27 -179.5t-77 -194.5q-82 -172 -177 -266.5t-186 -94.5q-69 0 -101 52.5t-32 128.5q0 58 22 262q-73 -171 -131 -250q-53 -74 -124 -133.5t-128 -59.5q-51 0 -82.5 49.5t-31.5 139.5q0 167 84 745h63q-8 -59 -27 -198t-30 -222.5t-21 -180.5t-10 -146
q0 -121 58 -121q38 0 89.5 44t100.5 114q172 245 266 682l62 2q-101 -539 -101 -717q0 -66 17.5 -95.5t58.5 -29.5q45 0 93.5 33.5t90.5 88t76.5 114.5t61.5 124q79 182 79 309q-2 -1 -16.5 -10t-23.5 -13.5t-27 -9t-36 -4.5q-47 1 -74 35.5t-29 67.5q-3 60 33 97.5t90.5 35
t100.5 -48.5q30 -30 38 -59.5t8 -90.5z" />
    <glyph glyph-name="x" unicode="x" 
d="M129 72q53 -31 82 -31q21 0 45.5 14t53 43t55 60.5t61 79.5t60 85t63.5 93.5t61 89.5q-23 186 -51 254.5t-90 68.5q-88 0 -244 -133l-41 54q172 149 289 149q159 0 193 -319q77 114 147 185.5t145 108.5q62 31 111 31q60 0 103 -31t42 -80q-2 -47 -36 -85.5t-97 -37.5
q-52 1 -78 40t-24 94q-129 -67 -305 -320q10 -65 17.5 -110.5t18 -98t22.5 -86t27.5 -63.5t34.5 -44.5t42 -14.5q36 0 69 13.5t63.5 42t49.5 50t49.5 62t40.5 53.5l49 -47q-41 -55 -72 -92t-72.5 -74.5t-85.5 -56.5t-91 -19q-83 0 -130.5 97t-84.5 311q-25 -36 -68 -97.5
t-65.5 -93.5t-57.5 -78t-58.5 -70t-53 -49.5t-56 -36t-53.5 -10.5q-40 0 -111 41z" />
    <glyph glyph-name="y" unicode="y" 
d="M1038 880h63q-126 -604 -173 -779q-57 -212 -139 -309t-216 -115q-125 -17 -316 39l18 60q184 -51 285 -39q116 14 188.5 102t116.5 262q62 242 145 605q-28 -76 -76 -169.5t-115 -193.5t-139.5 -181.5t-156 -134.5t-156.5 -53q-27 0 -46 9t-28.5 24.5t-13 38t-1.5 49
t8.5 58.5t14.5 65t18 69q7 25 10 37l100 382q14 54 12.5 85t-12 43t-32.5 11q-26 -2 -81.5 -25t-117.5 -58l-30 54q157 89 231 91q60 1 90 -46t4 -146l-105 -408q-9 -35 -26.5 -84t-26.5 -77t-12.5 -57t11.5 -42t50 -14q75 -1 175.5 89t192 223t168.5 276.5t118 258.5z" />
    <glyph glyph-name="z" unicode="z" 
d="M1027 256l51 -34q-9 -13 -29.5 -41.5t-30 -41.5t-28 -37t-30.5 -36l-30 -30t-33 -26.5t-34 -18t-39 -13.5t-42 -4q-45 0 -79.5 15t-58.5 37t-49.5 43.5t-65.5 36.5t-93 15q-25 0 -43.5 -2.5t-58.5 -14.5t-88.5 -45.5t-100.5 -85.5l-44 44l709 709q-2 2 -25.5 20t-32.5 24
t-34 22t-45 22.5t-50 15.5t-64 12.5t-72 2.5q-52 -1 -90.5 -10t-52.5 -16.5t-36 -22.5q33 -7 65.5 -34.5t33.5 -73.5q0 -36 -13.5 -63t-34 -40t-39 -19t-34.5 -6q-51 0 -83.5 38.5t-32.5 82.5q0 86 92 156t225 70q49 0 93 -6.5t72.5 -14t63 -25t49 -27t48 -32.5t43.5 -30
l137 137l39 -44l-700 -705q64 22 105 22q64 0 110.5 -15t72.5 -37t47.5 -43.5t49.5 -36.5t65 -15q20 0 37.5 4t36 17t30.5 22.5t33 35t31 38.5t37 50t40 54z" />
    <glyph glyph-name="braceleft" unicode="{" 
d="M315 492q84 28 131 75.5t72 128.5l47 154q53 172 82 230q60 119 159 137q28 6 60 4q104 -5 174 -74.5t65 -167.5q-2 -47 -31 -78.5t-71 -30.5q-42 2 -70 27.5t-26 67.5q2 34 28 60t59 24q36 -2 54 -26q-7 59 -62.5 96.5t-121.5 40.5q-41 2 -73.5 -12t-51.5 -29
t-40.5 -61.5t-29 -67.5t-28.5 -91q-9 -29 -14 -44l-49 -158q-33 -105 -79 -165.5t-113 -74.5q131 -42 85 -255l-34 -158q-30 -135 29 -228.5t175 -99.5q66 -3 125 28t72 88q-21 -21 -56 -19q-33 2 -56.5 30t-21.5 62q2 41 32.5 64t72.5 21t67 -37.5t23 -82.5
q-5 -98 -82 -159.5t-181 -56.5q-143 8 -220.5 125.5t-39.5 275.5l37 155q20 85 -1 134.5t-100 85.5z" />
    <glyph glyph-name="bar" unicode="|" horiz-adv-x="1257" 
d="M840 1234l-336 -1561h-64l337 1561h63z" />
    <glyph glyph-name="braceright" unicode="}" 
d="M912 384q-83 -28 -130.5 -76t-72.5 -129l-47 -153q-53 -172 -82 -230q-60 -119 -158 -138q-28 -6 -61 -4q-104 5 -174 74.5t-65 167.5q2 47 31 79t71 31q42 -2 69.5 -28t25.5 -68q-2 -34 -27.5 -59.5t-58.5 -23.5q-36 2 -54 26q7 -59 62.5 -96.5t121.5 -40.5
q41 -2 73.5 12t51.5 29t40.5 61.5t29 67.5t28.5 91q9 29 14 44l49 157q33 105 79 165.5t113 74.5q-131 42 -85 255l34 158q30 136 -29 229.5t-175 99.5q-66 3 -125 -28.5t-72 -88.5q22 22 56 20q33 -2 56.5 -30.5t21.5 -62.5q-2 -41 -32.5 -63.5t-72.5 -20.5t-67.5 37
t-23.5 82q5 98 82.5 159.5t181.5 56.5q143 -8 220.5 -125.5t39.5 -275.5l-37 -154q-20 -85 1 -135t100 -86z" />
    <glyph glyph-name="asciitilde" unicode="~" 
d="M819 489q-76 0 -126 45t-95 144q-43 94 -82 131t-94 37q-75 0 -122.5 -71t-47.5 -191v-72h-62v72q0 153 62.5 238t169.5 85q84 0 135 -47t96 -153q37 -89 72 -122.5t94 -33.5q74 0 117 68.5t43 191.5v70h61v-70q0 -157 -57.5 -239.5t-163.5 -82.5z" />
    <glyph glyph-name="exclamdown" unicode="&#xa1;" 
d="M600 874q28 32 74 32q42 1 74 -30.5t32 -73.5t-32 -74t-74 -31q-44 1 -75 32.5t-30 72.5q2 44 31 72zM396 -328l224 904h42l-160 -904h-106z" />
    <glyph glyph-name="cent" unicode="&#xa2;" 
d="M503 35q124 3 228.5 60.5t175.5 154.5l42 -44q-72 -104 -194 -168.5t-261 -64.5h-4l-35 -167h-62l37 172q-126 19 -200 111t-74 235q0 155 65.5 284.5t172.5 206t233 90.5l41 196h62l-41 -194q118 -3 193.5 -59t75.5 -149q0 -137 -115 -139q-29 -1 -66 26.5t-36 73.5
q1 60 37.5 90.5t89.5 23.5q-19 33 -75.5 52t-116.5 19zM216 322q1 -118 62 -193.5t165 -90.5l170 802q-76 -13 -147 -55.5t-126.5 -108t-89.5 -158t-34 -196.5z" />
    <glyph glyph-name="sterling" unicode="&#xa3;" 
d="M993 393l61 -7l-76 -386h-936l12 61h162l106 494h-241l15 62h239l68 317q29 143 123.5 221t210.5 79q84 1 158.5 -42t121.5 -130l-49 -37q-39 76 -101 112t-132 35q-94 -1 -170.5 -65.5t-102.5 -184.5l-64 -305h425l-14 -62h-424l-105 -494h647z" />
    <glyph glyph-name="yen" unicode="&#xa5;" 
d="M865 1209h410l-14 -64h-150l-211 -285h144l-12 -61h-177l-93 -126h255l-12 -61h-288l-93 -125l-96 -426h249l-15 -61h-553l12 61h246l96 426l-38 125h-292l13 61h261l-37 126h-209l12 61h178l-85 285h-174l17 64h413l-15 -61l-179 -3l85 -285h314l210 285h-187zM690 673
l92 126h-250l38 -126h120zM605 558l39 54h-56z" />
    <glyph glyph-name="brokenbar" unicode="&#xa6;" horiz-adv-x="1257" 
d="M816 1209l-133 -609h-64l133 609h64zM619 280l-132 -609h-64l132 609h64z" />
    <glyph glyph-name="section" unicode="&#xa7;" 
d="M767 641q48 -19 77.5 -31.5t73.5 -35.5t70 -43.5t52.5 -52t34.5 -64t3 -75.5t-29 -91q-74 -146 -255 -120q53 -64 49 -150q-7 -145 -107 -227t-257 -80q-142 2 -238.5 88t-95.5 214q0 150 101 152q43 1 72 -28t29 -58q2 -54 -41 -79.5t-97 11.5q-5 -93 76 -166t194 -73
q138 0 220 67.5t83 178.5q1 98 -68 146.5t-306 141.5q-3 1 -5 2q-48 19 -77.5 31.5t-74 35.5t-70.5 43.5t-52.5 52t-34.5 64t-3 75.5t29 91q74 146 255 120q-52 63 -48 150q7 145 107 227.5t257 80.5q142 -2 238.5 -88.5t95.5 -214.5q-1 -37 -10.5 -72t-33.5 -62.5
t-57 -29.5q-46 -3 -80.5 28.5t-34.5 67.5q0 27 18 52.5t51.5 36t82.5 -17.5q5 92 -76.5 165t-193.5 73q-139 0 -220.5 -67.5t-82.5 -178.5q-1 -99 68 -147t309 -142q1 -1 2 -1zM995 275q15 29 20.5 56t4.5 48t-11.5 41.5t-22 35t-33.5 30t-38.5 25.5t-44.5 22t-45 18.5
t-46 17.5t-42 16q-148 56 -218 92q-26 11 -51.5 20t-60.5 18t-67 9t-63.5 -6.5t-58.5 -28t-44 -55.5q-15 -29 -20.5 -56t-4.5 -48t11.5 -41.5t22 -35t33.5 -30t38.5 -25.5t44.5 -22t45.5 -18.5t46.5 -17.5t42 -16q157 -61 217 -91q26 -12 51.5 -20.5t60.5 -18t66.5 -9.5
t63.5 6t59 27.5t44 56.5z" />
    <glyph glyph-name="dieresis" unicode="&#xa8;" 
d="M612 1015q-19 -22 -49 -22q-29 -1 -49 20t-20 51q0 29 20 49t49 20t49.5 -20.5t19.5 -48.5q-2 -31 -20 -49zM983 1015q-19 -22 -49 -22q-29 -1 -48.5 19.5t-20.5 51.5q-1 28 19.5 48.5t49.5 20.5q30 0 50.5 -20.5t18.5 -48.5q-1 -29 -20 -49z" />
    <glyph glyph-name="copyright" unicode="&#xa9;" 
d="M1032 184q-174 -174 -420 -174q-161 0 -298 79.5t-216.5 216.5t-79.5 298t79.5 298t216.5 216.5t298 79.5t298 -79.5t216.5 -216.5t79.5 -298q0 -246 -174 -420zM229 221q157 -160 383 -160q148 0 272.5 72.5t196.5 197.5t72 273q0 146 -73 270.5t-197.5 197.5t-270.5 73
q-148 0 -273 -72t-197 -196.5t-72 -272.5q0 -227 159 -383zM616 217q-171 0 -283 115t-112 282q0 164 112.5 271.5t274.5 107.5q129 0 215 -78t86 -190q0 -59 -31.5 -97t-76.5 -38t-75 27t-30 69q0 30 23.5 55t52.5 25q44 0 76 -29q0 84 -71.5 139.5t-168.5 55.5
q-147 0 -236 -88t-89 -230q0 -145 96 -240t237 -95q112 0 206 68.5t136 178.5l56 -24q-51 -131 -158 -208t-240 -77z" />
    <glyph glyph-name="ordfeminine" unicode="&#xaa;" 
d="M908 366q-27 -111 -34.5 -153.5t-7.5 -84.5q0 -91 59 -91q63 0 185 86l39 -47q-140 -101 -229 -101q-52 0 -84.5 43t-30.5 120q4 109 39 223q-50 -71 -85 -117.5t-84.5 -102.5t-91 -89t-91.5 -55.5t-99 -22.5q-114 0 -172.5 81t-57.5 210q0 83 23 171.5t68.5 172.5
t106.5 150.5t144.5 107t174.5 40.5q87 0 164 -19t174 -71l-4 -23zM948 782q-52 30 -104 44.5t-80.5 16.5t-78.5 2h-15q-94 0 -179 -56.5t-141.5 -143t-89.5 -187t-33 -190.5q0 -102 44 -166.5t131 -64.5q35 0 75 20t78.5 52t92.5 91.5t102 118t121 152.5z" />
    <glyph glyph-name="guillemotleft" unicode="&#xab;" 
d="M704 871l-413 -360l259 -358l-52 -41l-296 402l459 403zM1088 871l-412 -360l259 -358l-53 -41l-295 402l459 403z" />
    <glyph glyph-name="logicalnot" unicode="&#xac;" 
d="M213 616h741l-2 -356h64v418h-803v-62z" />
    <glyph glyph-name="registered" unicode="&#xae;" 
d="M449 643q-123 0 -210 87t-87 210q0 122 87 208.5t210 86.5q121 0 207.5 -86.5t86.5 -208.5q0 -123 -86 -210t-208 -87zM449 682q106 0 181 76t75 182t-75 181t-181 75t-182.5 -75.5t-76.5 -180.5q0 -109 75 -183.5t184 -74.5zM315 797v39h37v217h-37v39h146q42 0 67 -22
t25 -60q0 -34 -19.5 -54t-41.5 -20q12 -3 24 -47q21 -52 33 -55q20 0 20 43v22h39v-22q0 -82 -59 -82q-51 0 -72 86q-9 39 -45 39h-41v-84h41v-39h-117zM391 958h51q72 0 72 52q0 43 -53 43h-70v-95z" />
    <glyph glyph-name="macron" unicode="&#xaf;" 
d="M435 1113l-15 -61h583l14 61h-582z" />
    <glyph glyph-name="degree" unicode="&#xb0;" 
d="M616 729q-106 0 -180 74t-74 180q0 104 74 178t180 74q104 0 178 -74t74 -178q0 -106 -74 -180t-178 -74zM616 788q80 0 136.5 57t56.5 138q0 79 -56.5 136t-136.5 57q-81 0 -137.5 -56.5t-56.5 -136.5q0 -82 56 -138.5t138 -56.5z" />
    <glyph glyph-name="plusminus" unicode="&#xb1;" 
d="M178 549h410v-270l61 -3v271l410 2v61l-410 -2v271l-61 2v-271h-410v-61zM1059 74v63h-881v-63h881z" />
    <glyph glyph-name="uni00B2" unicode="&#xb2;" 
d="M27 0q12 55 24 99t27.5 83t29 68.5t36 58t40.5 48.5t50 42.5t57.5 38t70.5 37t80.5 37.5t95.5 41q91 38 139.5 59t109 48.5t89 43.5t64.5 39t51 39.5t32.5 40.5t25.5 48t14 55q11 44 5 79t-17.5 61t-36 45t-51.5 31.5t-62.5 20t-70 10t-73.5 2.5q-134 -1 -249 -58
t-186 -163q65 32 111 -6t46 -85q0 -57 -40 -88.5t-95 -32.5q-49 -1 -79.5 44.5t-18.5 115.5q16 95 101 173t198 119t224 40q62 0 117.5 -10t108 -32t85 -57.5t48.5 -87t0 -120.5q-11 -47 -29 -85.5t-35 -67.5t-58.5 -59.5t-68.5 -49.5t-96 -50t-110 -48.5t-141 -57.5
q-25 -10 -37 -15q-133 -52 -172 -72q-167 -86 -235 -239q-23 -52 -37 -113q102 92 242 92q20 0 40.5 -3t33.5 -5.5t35.5 -11t29.5 -11.5t33.5 -15.5t31.5 -14.5q6 -3 23 -10.5t24 -10.5t22.5 -10t23.5 -10t22 -8t23 -7.5t20 -5.5t20.5 -4t18.5 -1q217 0 274 318l63 -5
q-44 -193 -117 -283.5t-220 -90.5q-58 0 -106.5 18t-107.5 51q-42 20 -63.5 29.5t-57.5 19.5t-66 10q-113 0 -260 -101h-64z" />
    <glyph glyph-name="uni00B3" unicode="&#xb3;" 
d="M199 258q-2 -72 43 -124t113.5 -76t148.5 -24q171 0 311.5 105t171.5 250q32 150 -43 236.5t-254 99.5l-69 -59l-46 44l516 438h-631l-143 -320l-61 15l162 366l778 -1l-11 -63l-433 -367q162 -22 247 -121t50 -268q-26 -121 -107 -215.5t-199 -148.5q-113 -52 -239 -52
q-80 0 -153 23.5t-126 67.5t-74.5 106.5t1.5 141.5q20 67 54 100.5t74 34.5q52 -1 89 -36.5t37 -83.5q0 -50 -39 -81t-92 -32q-28 -1 -49.5 12t-26.5 32z" />
    <glyph glyph-name="acute" unicode="&#xb4;" 
d="M376 1022l10 -41l641 154l-17 77z" />
    <glyph glyph-name="uni00B5" unicode="&#xb5;" 
d="M1119 119l29 -54q-154 -87 -231 -91q-75 -2 -93.5 56.5t5.5 156.5q52 265 107 470q-99 -214 -212 -373q-222 -308 -432 -308q-52 0 -76 35l-85 -314h-55l126 477q8 51 34 151l101 386q16 60 16.5 90t-9.5 38t-32 7q-81 -1 -206 -120l-42 44q150 137 258 137
q36 0 58.5 -15.5t29.5 -39.5t6.5 -48.5t-6.5 -48.5l-115 -447q-39 -151 -41 -195q-4 -79 56 -78q83 1 180 81.5t191 212.5q259 370 302 551h57l-152 -704q-7 -34 -10 -54t-2.5 -43.5t12 -33.5t32.5 -9q26 2 81.5 25t117.5 58z" />
    <glyph glyph-name="paragraph" unicode="&#xb6;" horiz-adv-x="1224" 
d="M1033 1232q70 0 127 -16t91 -42.5t52 -59.5t16.5 -67.5t-21.5 -65.5l-51 34q19 26 9.5 53.5t-35 49.5t-75 37t-111.5 15l-3 -1q-3 -44 -11 -157.5t-13.5 -178t-14.5 -160.5t-20 -177.5t-25 -155.5q-17 -91 -49.5 -157.5t-95.5 -112.5q-64 -48 -153.5 -72.5t-178.5 -24.5
q-126 0 -229.5 61.5t-141.5 176.5q0 1 -1 3t-1 3l56 41q28 -97 108.5 -159t181.5 -62q44 0 80 12.5t62 31.5t47 54.5t35 69.5t26 89.5t19.5 101t17.5 116.5q-238 3 -354.5 83.5t-116.5 254.5q0 80 29.5 145.5t77.5 108.5t111.5 72t130.5 42t136 13h200v1h88zM950 965l15 204
h-105l-18 -213q-33 -424 -64 -616q-23 -159 -112 -264l-11 -13l15 5q97 34 147.5 102.5t71.5 181.5q12 71 22.5 158.5t15 141t12.5 166.5t11 147z" />
    <glyph glyph-name="periodcentered" unicode="&#xb7;" 
d="M616 453q-57 0 -98 40.5t-41 94.5q0 56 41 96.5t98 40.5q55 0 94.5 -40.5t39.5 -96.5t-39.5 -95.5t-94.5 -39.5z" />
    <glyph glyph-name="cedilla" unicode="&#xb8;" 
d="M551 15l-35 -84q148 -29 145 -137q2 -60 -48.5 -104t-123.5 -44q-103 0 -238 86l27 42q53 -34 111.5 -53t108.5 -21t83 22t33 72q0 27 -24 48t-46 29.5t-77 25.5q-10 3 -15 5l47 120z" />
    <glyph glyph-name="uni00B9" unicode="&#xb9;" 
d="M598 61h411l-15 -61h-953l14 61h480l238 1067q-17 -52 -88.5 -145t-118.5 -137q-101 -93 -210 -150.5t-207 -56.5l-25 52q214 17 401 199q82 79 129.5 148.5t81.5 170.5h116z" />
    <glyph glyph-name="ordmasculine" unicode="&#xba;" 
d="M489 -32q-179 0 -283.5 138t-62.5 331q30 131 114.5 239.5t199.5 169.5t234 61q117 0 207 -62.5t129 -171.5t10 -236q-30 -131 -114.5 -239.5t-199.5 -169t-234 -60.5zM501 29q95 0 195.5 55.5t176.5 150.5t100 202q39 177 -50.5 291.5t-249.5 116.5q-151 -2 -291.5 -123
t-175.5 -285q-39 -182 48.5 -294t246.5 -114z" />
    <glyph glyph-name="guillemotright" unicode="&#xbb;" 
d="M165 160l412 359l-259 358l52 42l296 -403l-459 -403zM549 160l413 359l-259 358l52 42l296 -403l-459 -403z" />
    <glyph glyph-name="onequarter" unicode="&#xbc;" 
d="M207 -27l-41 29l883 1233l41 -27zM82 932q155 122 227 276h66v-497h162v-49h-418v49h207v417q-57 -89 -93.5 -129t-121.5 -106zM594 123q186 232 244 426l45 -14q-32 -104 -83.5 -196t-148.5 -222h285v262h49v-262h152v-49h-152v-97h-49v97h-342v55z" />
    <glyph glyph-name="onehalf" unicode="&#xbd;" 
d="M207 -27l-41 29l883 1233l41 -27zM82 932q155 122 227 276h66v-497h162v-49h-418v49h207v417q-57 -89 -93.5 -129t-121.5 -106zM733 397q12 31 43 31q22 0 35.5 -13t13.5 -38q0 -26 -17 -42t-46 -16q-33 0 -52.5 23t-19.5 57q0 65 61.5 112.5t147.5 47.5t143.5 -45
t57.5 -113q0 -66 -33.5 -105.5t-97.5 -64.5l-111 -43q-141 -54 -141 -155q64 47 127 47q45 0 96 -28.5t80 -28.5q36 0 55 32.5t19 87.5v31h49v-33q0 -168 -123 -168q-54 0 -97.5 29t-78.5 29q-10 0 -19 -1t-18.5 -4.5t-15.5 -6t-17 -8.5t-16.5 -9.5t-19 -12t-19.5 -12.5
l-51 27q0 98 42 147t128 82l116 46q97 38 97 122q0 45 -41.5 77t-110.5 32q-73 0 -119.5 -35.5t-46.5 -77.5z" />
    <glyph glyph-name="threequarters" unicode="&#xbe;" 
d="M207 -27l-41 29l883 1233l41 -27zM143 797q12 -31 43 -31q22 0 36 13t14 38q0 26 -17.5 41.5t-46.5 15.5q-33 0 -52.5 -21t-19.5 -54q0 -71 69 -113.5t157 -42.5q94 0 171.5 55.5t77.5 151.5q0 75 -55.5 125.5t-138.5 50.5l178 145v37h-422l-33 -149l50 -6l24 106h289
l-205 -168l31 -39l33 27q78 10 139 -26t61 -103q0 -72 -63 -115t-137 -43t-128.5 31.5t-54.5 73.5zM594 123q186 232 244 426l45 -14q-32 -104 -83.5 -196t-148.5 -222h285v262h49v-262h152v-49h-152v-97h-49v97h-342v55z" />
    <glyph glyph-name="questiondown" unicode="&#xbf;" 
d="M611 896q26 30 73 32q42 1 73.5 -30t32.5 -73t-31.5 -74.5t-74.5 -31.5q-43 1 -74.5 33t-30.5 73q2 42 32 71zM627 601h64q-21 -74 -54 -133t-77 -103t-86.5 -74.5t-99.5 -62.5q-88 -49 -127.5 -108t-38.5 -136q1 -111 87.5 -183.5t209.5 -71.5q143 1 252 69t129 162
q-42 -15 -74 7t-32 78q0 32 26 51t53 19q43 0 69 -30.5t27 -77.5q1 -141 -137.5 -242t-312.5 -98q-152 2 -255 93.5t-104 223.5q-2 190 193 292q233 123 288 325z" />
    <glyph glyph-name="Agrave" unicode="&#xc0;" 
d="M637 1541l631 -189l-7 -42l-644 155zM958 1209v-1148h141l-13 -61h-327l13 61h125v431h-394l-263 -431h110l-12 -61h-307l14 61h126l659 1087h-24q-50 0 -92.5 -10t-69.5 -25.5t-45 -36t-18 -41.5t11 -42l32 -49l-46 -42l-37 56q-20 31 -22 65.5t16.5 67t52.5 59t91 43
t127 16.5h152zM540 553h357v585z" />
    <glyph glyph-name="Aacute" unicode="&#xc1;" 
d="M1224 1465l-642 -155l-9 42l634 189zM958 1209v-1148h141l-13 -61h-327l13 61h125v431h-394l-263 -431h110l-12 -61h-307l14 61h126l659 1087h-24q-50 0 -92.5 -10t-69.5 -25.5t-45 -36t-18 -41.5t11 -42l32 -49l-46 -42l-37 56q-20 31 -22 65.5t16.5 67t52.5 59t91 43
t127 16.5h152zM540 553h357v585z" />
    <glyph glyph-name="Acircumflex" unicode="&#xc2;" 
d="M931 1541l364 -219l-12 -27l-352 172l-467 -172l-12 27zM958 1209v-1148h141l-13 -61h-327l13 61h125v431h-394l-263 -431h110l-12 -61h-307l14 61h126l659 1087h-24q-50 0 -92.5 -10t-69.5 -25.5t-45 -36t-18 -41.5t11 -42l32 -49l-46 -42l-37 56q-20 31 -22 65.5
t16.5 67t52.5 59t91 43t127 16.5h152zM540 553h357v585z" />
    <glyph glyph-name="Atilde" unicode="&#xc3;" 
d="M958 61h141l-13 -61h-327l13 61h125v431h-394l-263 -431h110l-12 -61h-307l14 61h126l659 1087h-24q-50 0 -92.5 -10t-69.5 -25.5t-45 -36t-18 -41.5t11 -42l32 -49l-46 -42l-37 56q-20 31 -22 65.5t16.5 67t52.5 59t91 43t127 16.5h152v-1148zM540 553h357v585z" />
    <glyph glyph-name="Adieresis" unicode="&#xc4;" 
d="M757 1322q-29 -1 -49 20t-20 51q0 29 20 49t49 20t49.5 -20.5t19.5 -48.5q-2 -31 -20 -49q-19 -22 -49 -22zM1128 1462q30 0 50.5 -20.5t18.5 -48.5q-1 -29 -20 -49q-19 -22 -49 -22q-29 -1 -48.5 19.5t-20.5 51.5q-1 28 19.5 48.5t49.5 20.5zM958 1209v-1148h141
l-13 -61h-327l13 61h125v431h-394l-263 -431h110l-12 -61h-307l14 61h126l659 1087h-24q-50 0 -92.5 -10t-69.5 -25.5t-45 -36t-18 -41.5t11 -42l32 -49l-46 -42l-37 56q-20 31 -22 65.5t16.5 67t52.5 59t91 43t127 16.5h152zM540 553h357v585z" />
    <glyph glyph-name="Aring" unicode="&#xc5;" 
d="M929 1322q-54 0 -94.5 39t-40.5 93t40 92.5t95 38.5q56 0 97 -38.5t41 -92.5t-41 -93t-97 -39zM840 1454q-1 -39 24.5 -64.5t64.5 -25.5q38 0 63 25.5t25 64.5q0 36 -25.5 61t-62.5 26q-38 1 -63 -24.5t-26 -62.5zM958 61h141l-13 -61h-327l13 61h125v431h-394l-263 -431
h110l-12 -61h-307l14 61h126l659 1087h-24q-50 0 -92.5 -10t-69.5 -25.5t-45 -36t-18 -41.5t11 -42l32 -49l-46 -42l-37 56q-20 31 -22 65.5t16.5 67t52.5 59t91 43t127 16.5h152v-1148zM540 553h357v585z" />
    <glyph glyph-name="AE" unicode="&#xc6;" 
d="M1355 1209l-88 -430h-64l76 369h-565l-103 -514h331l32 145h64l-88 -391h-64l42 185h-330l-103 -512h575l72 376l61 -7l-81 -430h-745l15 61h42l86 431h-227l-235 -431h86l-13 -61h-205v61h65l593 1087h-64q-43 0 -78 -24.5t-52.5 -58.5t-26 -63t-8.5 -44h-61
q0 20 7 49.5t25 65t43 65.5t64.5 50.5t86.5 20.5h835zM533 553l118 589l-3 -4l-321 -585h206z" />
    <glyph glyph-name="Ccedilla" unicode="&#xc7;" 
d="M1074 312q-87 -153 -217.5 -246t-278.5 -93q-200 0 -322.5 124t-122.5 328q1 151 51.5 297.5t135 259.5t204.5 182.5t250 69.5q162 -1 260 -79.5t99 -223.5q1 -79 -42 -134t-106 -60q-42 -4 -81 27.5t-36 93.5q2 45 38 80t77 33q30 -1 52 -10.5t27 -21.5q8 95 -61 163.5
t-222 69.5q-119 0 -228.5 -65t-186.5 -171t-123.5 -241t-48.5 -272q2 -176 107 -282.5t283 -106.5q129 0 252.5 92t185.5 216z" />
    <glyph glyph-name="Egrave" unicode="&#xc8;" 
d="M1138 1349l-632 189l-19 -76l643 -155zM1256 1209l-89 -430h-64l77 369h-561l-103 -514h332l32 145h64l-89 -391h-64l42 185h-329l-103 -512h550l81 376l62 -7l-91 -430h-868l15 61h189l219 1087h-133q-46 0 -82 -25t-53.5 -58.5t-25 -63t-3.5 -43.5h-62q-4 24 7.5 64
t36.5 82.5t73 73.5t109 31h831z" />
    <glyph glyph-name="Eacute" unicode="&#xc9;" 
d="M442 1349l10 -42l642 155l-18 76zM1256 1209l-89 -430h-64l77 369h-561l-103 -514h332l32 145h64l-89 -391h-64l42 185h-329l-103 -512h550l81 376l62 -7l-91 -430h-868l15 61h189l219 1087h-133q-46 0 -82 -25t-53.5 -58.5t-25 -63t-3.5 -43.5h-62q-4 24 7.5 64
t36.5 82.5t73 73.5t109 31h831z" />
    <glyph glyph-name="Ecircumflex" unicode="&#xca;" 
d="M801 1538l-479 -218l12 -27l467 172l352 -172l12 27zM1256 1209l-89 -430h-64l77 369h-561l-103 -514h332l32 145h64l-89 -391h-64l42 185h-329l-103 -512h550l81 376l62 -7l-91 -430h-868l15 61h189l219 1087h-133q-46 0 -82 -25t-53.5 -58.5t-25 -63t-3.5 -43.5h-62
q-4 24 7.5 64t36.5 82.5t73 73.5t109 31h831z" />
    <glyph glyph-name="Edieresis" unicode="&#xcb;" 
d="M676 1342q-19 -22 -49 -22q-29 -1 -49 20t-20 51q0 29 20 49t49 20t49.5 -20.5t19.5 -48.5q-2 -31 -20 -49zM1047 1342q-19 -22 -49 -22q-29 -1 -48.5 19.5t-20.5 51.5q-1 28 19.5 48.5t49.5 20.5q30 0 50.5 -20.5t18.5 -48.5q-1 -29 -20 -49zM1256 1209l-89 -430h-64
l77 369h-561l-103 -514h332l32 145h64l-89 -391h-64l42 185h-329l-103 -512h550l81 376l62 -7l-91 -430h-868l15 61h189l219 1087h-133q-46 0 -82 -25t-53.5 -58.5t-25 -63t-3.5 -43.5h-62q-4 24 7.5 64t36.5 82.5t73 73.5t109 31h831z" />
    <glyph glyph-name="Igrave" unicode="&#xcc;" 
d="M1116 1349l-632 189l-20 -76l644 -155zM578 61h373l-12 -61h-806l12 61h371l219 1087h-430l12 61h863l-13 -61h-371z" />
    <glyph glyph-name="Iacute" unicode="&#xcd;" 
d="M420 1349l10 -42l642 155l-18 76zM578 61h373l-12 -61h-806l12 61h371l219 1087h-430l12 61h863l-13 -61h-371z" />
    <glyph glyph-name="Icircumflex" unicode="&#xce;" 
d="M779 1538l-479 -218l12 -27l467 172l351 -172l13 27zM578 61h373l-12 -61h-806l12 61h371l219 1087h-430l12 61h863l-13 -61h-371z" />
    <glyph glyph-name="Idieresis" unicode="&#xcf;" 
d="M654 1342q-19 -22 -49 -22q-29 -1 -49 20t-20 51q0 29 20 49t49 20t49 -20t19 -49q-2 -32 -19 -49zM1025 1342q-19 -22 -49 -22q-29 -1 -48.5 19.5t-20.5 51.5q-1 28 19.5 48.5t49.5 20.5q30 0 50 -20.5t18 -48.5q-2 -30 -19 -49zM578 61h373l-12 -61h-806l12 61h371
l219 1087h-430l12 61h863l-13 -61h-371z" />
    <glyph glyph-name="Eth" unicode="&#xd0;" 
d="M646 1209q289 0 441 -185q121 -147 120 -365q-1 -209 -112 -384q-119 -186 -314 -248q-84 -27 -176 -27h-566l15 61h214l110 523l-191 1l10 56h193l106 507h-52q-50 0 -92.5 -10t-69.5 -25.5t-45 -36t-18 -41.5t11 -42l32 -49l-47 -42l-37 56q-20 31 -22 65.5t16.5 67
t53 59t91.5 43t127 16.5h202zM602 61q221 0 374 162q128 136 161 331q34 200 -50 357q-94 178 -305 223q-65 14 -138 14h-79l-105 -507h210l-13 -57h-209l-109 -523h263z" />
    <glyph glyph-name="Ntilde" unicode="&#xd1;" 
d="M944 1209h390l-12 -61h-162l-241 -1148h-96l-300 1148l-231 -1087h155l-12 -61h-334l12 61h118l231 1087h-45q-45 0 -80 -25t-52.5 -58.5t-26 -63t-6.5 -43.5h-62q-2 24 10 63.5t36.5 82t71 73.5t104.5 32h163l294 -1146l230 1085h-168z" />
    <glyph glyph-name="Ograve" unicode="&#xd2;" 
d="M1108 1349l-631 189l-20 -76l644 -155zM1130 605q-27 -126 -83 -239t-134.5 -201.5t-183.5 -140.5t-221 -51q-89 1 -160.5 34t-115.5 91.5t-70.5 137.5t-26 171.5t18.5 194.5q35 171 122 314t219.5 231t280.5 87q91 -1 162.5 -34.5t116 -91t70.5 -136t25 -171t-20 -196.5
zM218 605q-36 -154 -14.5 -284.5t100.5 -207.5q82 -79 216 -79q123 0 237.5 80t194.5 209.5t116 283.5q22 93 23.5 178t-19 156t-60 123t-103.5 80.5t-146 27.5q-100 -1 -192.5 -51t-161.5 -131.5t-118.5 -180.5t-72.5 -204z" />
    <glyph glyph-name="Oacute" unicode="&#xd3;" 
d="M413 1349l10 -42l641 155l-17 76zM1130 605q-27 -126 -83 -239t-134.5 -201.5t-183.5 -140.5t-221 -51q-89 1 -160.5 34t-115.5 91.5t-70.5 137.5t-26 171.5t18.5 194.5q35 171 122 314t219.5 231t280.5 87q91 -1 162.5 -34.5t116 -91t70.5 -136t25 -171t-20 -196.5z
M218 605q-36 -154 -14.5 -284.5t100.5 -207.5q82 -79 216 -79q123 0 237.5 80t194.5 209.5t116 283.5q22 93 23.5 178t-19 156t-60 123t-103.5 80.5t-146 27.5q-100 -1 -192.5 -51t-161.5 -131.5t-118.5 -180.5t-72.5 -204z" />
    <glyph glyph-name="Ocircumflex" unicode="&#xd4;" 
d="M772 1538l-480 -218l13 -27l467 172l351 -172l12 27zM1130 605q-27 -126 -83 -239t-134.5 -201.5t-183.5 -140.5t-221 -51q-89 1 -160.5 34t-115.5 91.5t-70.5 137.5t-26 171.5t18.5 194.5q35 171 122 314t219.5 231t280.5 87q91 -1 162.5 -34.5t116 -91t70.5 -136
t25 -171t-20 -196.5zM218 605q-36 -154 -14.5 -284.5t100.5 -207.5q82 -79 216 -79q123 0 237.5 80t194.5 209.5t116 283.5q22 93 23.5 178t-19 156t-60 123t-103.5 80.5t-146 27.5q-100 -1 -192.5 -51t-161.5 -131.5t-118.5 -180.5t-72.5 -204z" />
    <glyph glyph-name="Otilde" unicode="&#xd5;" 
d="M1101 605q-27 -126 -83 -239t-134.5 -201.5t-183.5 -140.5t-221 -51q-89 1 -160.5 34t-115.5 91.5t-70.5 137.5t-26 171.5t18.5 194.5q35 171 122 314t219.5 231t280.5 87q91 -1 162.5 -34.5t116 -91t70.5 -136t25 -171t-20 -196.5zM189 605q-36 -154 -14.5 -284.5
t100.5 -207.5q82 -79 217 -79q123 0 237.5 80t194.5 209.5t116 283.5q22 93 23.5 178t-19 156t-60 123t-103.5 80.5t-146 27.5q-100 -1 -192.5 -51t-161.5 -131.5t-119 -180.5t-73 -204z" />
    <glyph glyph-name="Odieresis" unicode="&#xd6;" 
d="M646 1342q-19 -22 -49 -22q-29 -1 -49 20t-20 51q0 29 20 49t49 20t49.5 -20.5t19.5 -48.5q-2 -31 -20 -49zM1017 1342q-19 -22 -49 -22q-29 -1 -48.5 19.5t-20.5 51.5q-1 28 19.5 48.5t49.5 20.5q30 0 50.5 -20.5t18.5 -48.5q-1 -29 -20 -49zM1130 605
q-27 -126 -83 -239t-134.5 -201.5t-183.5 -140.5t-221 -51q-89 1 -160.5 34t-115.5 91.5t-70.5 137.5t-26 171.5t18.5 194.5q35 171 122 314t219.5 231t280.5 87q91 -1 162.5 -34.5t116 -91t70.5 -136t25 -171t-20 -196.5zM218 605q-36 -154 -14.5 -284.5t100.5 -207.5
q82 -79 216 -79q123 0 237.5 80t194.5 209.5t116 283.5q22 93 23.5 178t-19 156t-60 123t-103.5 80.5t-146 27.5q-100 -1 -192.5 -51t-161.5 -131.5t-118.5 -180.5t-72.5 -204z" />
    <glyph glyph-name="multiply" unicode="&#xd7;" 
d="M281 729l290 -289l-290 -288l45 -46l288 291l289 -291l45 46l-291 288l291 289l-45 45l-289 -291l-288 291z" />
    <glyph glyph-name="Oslash" unicode="&#xd8;" 
d="M1051 1113q71 -86 91.5 -219.5t-12.5 -288.5q-27 -126 -83 -239t-134.5 -201.5t-183.5 -140.5t-221 -51q-130 1 -220 71l-50 -71l-48 39l53 74q-76 85 -98.5 222.5t9.5 293.5q35 171 122 314t219.5 231t280.5 87q139 -3 231 -78l56 79l47 -39zM218 605
q-33 -142 -17 -264.5t80 -201.5l690 968q-80 66 -208 65q-100 -1 -192.5 -51t-161.5 -131.5t-118.5 -180.5t-72.5 -204zM1068 607q33 138 19.5 258t-72.5 197l-690 -967q79 -61 195 -61q123 0 237.5 80t194.5 209.5t116 283.5z" />
    <glyph glyph-name="Ugrave" unicode="&#xd9;" 
d="M1091 1325l-631 189l-20 -76l644 -155zM511 -27q-168 0 -261 110.5t-58 282.5l164 782h-186l14 61h430l-14 -61h-180l-167 -782q-34 -157 43 -244.5t227 -87.5q144 0 262 92t151 243l175 779h-187l10 61h430l-10 -61h-179l-175 -779q-29 -130 -104 -221t-173 -133
t-212 -42z" />
    <glyph glyph-name="Uacute" unicode="&#xda;" 
d="M396 1325l10 -42l641 155l-17 76zM511 -27q-168 0 -261 110.5t-58 282.5l164 782h-186l14 61h430l-14 -61h-180l-167 -782q-34 -157 43 -244.5t227 -87.5q144 0 262 92t151 243l175 779h-187l10 61h430l-10 -61h-179l-175 -779q-29 -130 -104 -221t-173 -133t-212 -42z
" />
    <glyph glyph-name="Ucircumflex" unicode="&#xdb;" 
d="M511 -27q-168 0 -261 110.5t-58 282.5l164 782h-186l14 61h430l-14 -61h-180l-167 -782q-34 -157 43 -244.5t227 -87.5q144 0 262 92t151 243l175 779h-187l10 61h430l-10 -61h-179l-175 -779q-29 -130 -104 -221t-173 -133t-212 -42z" />
    <glyph glyph-name="Udieresis" unicode="&#xdc;" 
d="M629 1317q-19 -22 -49 -22q-29 -1 -49 20t-20 51q0 29 20 49t49 20t49.5 -20.5t19.5 -48.5q-2 -31 -20 -49zM1000 1317q-19 -22 -49 -22q-29 -1 -48.5 19.5t-20.5 51.5q-1 28 19.5 48.5t49.5 20.5q30 0 50.5 -20.5t18.5 -48.5q-1 -29 -20 -49zM511 -27q-168 0 -261 110.5
t-58 282.5l164 782h-186l14 61h430l-14 -61h-180l-167 -782q-34 -157 43 -244.5t227 -87.5q144 0 262 92t151 243l175 779h-187l10 61h430l-10 -61h-179l-175 -779q-29 -130 -104 -221t-173 -133t-212 -42z" />
    <glyph glyph-name="Yacute" unicode="&#xdd;" 
d="M398 1352l10 -42l641 155l-17 76zM246 61h246l95 426l-196 658h-175l17 64h413l-14 -61l-180 -3l177 -587l433 587h-187l15 64h410l-15 -64h-150l-486 -658l-96 -426h248l-15 -61h-553z" />
    <glyph glyph-name="Thorn" unicode="&#xde;" 
d="M836 907q177 0 282 -66.5t103 -206.5q-1 -91 -41 -159.5t-111.5 -108.5t-162 -59t-201.5 -19h-297l-47 -227h332l-17 -61h-617l17 61h221l226 1087h-61q-50 0 -92.5 -10t-69.5 -25.5t-45 -36t-18 -41.5t11 -42l32 -49l-47 -42l-36 56q-20 31 -22 65.5t16.5 67t52.5 59
t91 43t127 16.5h381l-17 -61h-241l-49 -241h300zM713 349q93 0 171.5 15.5t142 48t99 88.5t34.5 131q-4 213 -342 213h-292l-106 -496h293z" />
    <glyph glyph-name="germandbls" unicode="&#xdf;" 
d="M826 484q66 -39 104.5 -72t62.5 -81.5t24 -111.5q0 -81 -55.5 -142t-135 -85.5t-173.5 -10.5t-164 71l39 46q60 -44 136.5 -55.5t140 7t107.5 64t44 105.5q0 69 -38.5 116t-121.5 95q-38 22 -59.5 37t-50.5 42t-43 61t-14 76q0 63 43.5 108t138.5 89q84 38 119.5 70
t35.5 90q0 65 -44.5 109.5t-105 56.5t-125.5 -6.5t-103 -68.5q-29 -38 -51 -99t-46 -172.5t-44 -223.5t-58.5 -323t-75.5 -399q-17 -93 -71 -121t-130 6t-164 120l45 44q229 -217 260 -37q44 220 98.5 517.5t73.5 390.5h-264l12 62h265q46 198 98 268q50 69 135 93.5t163 6
t135.5 -78.5t57.5 -145q0 -77 -41 -121.5t-149 -94.5q-75 -36 -110 -66.5t-36 -74.5q1 -52 32 -85t103 -77z" />
    <glyph glyph-name="agrave" unicode="&#xe0;" 
d="M1102 1025l-631 189l-20 -76l644 -155zM908 366q-27 -111 -34.5 -153.5t-7.5 -84.5q0 -91 59 -91q63 0 185 86l39 -47q-140 -101 -229 -101q-52 0 -84.5 43t-30.5 120q4 109 39 223q-50 -71 -85 -117.5t-84.5 -102.5t-91 -89t-91.5 -55.5t-99 -22.5q-114 0 -172.5 81
t-57.5 210q0 83 23 171.5t68.5 172.5t106.5 150.5t144.5 107t174.5 40.5q87 0 164 -19t174 -71l-4 -23zM948 782q-52 30 -104 44.5t-80.5 16.5t-78.5 2h-15q-94 0 -179 -56.5t-141.5 -143t-89.5 -187t-33 -190.5q0 -102 44 -166.5t131 -64.5q35 0 75 20t78.5 52t92.5 91.5
t102 118t121 152.5z" />
    <glyph glyph-name="aacute" unicode="&#xe1;" 
d="M407 1025l10 -42l641 155l-17 76zM908 366q-27 -111 -34.5 -153.5t-7.5 -84.5q0 -91 59 -91q63 0 185 86l39 -47q-140 -101 -229 -101q-52 0 -84.5 43t-30.5 120q4 109 39 223q-50 -71 -85 -117.5t-84.5 -102.5t-91 -89t-91.5 -55.5t-99 -22.5q-114 0 -172.5 81
t-57.5 210q0 83 23 171.5t68.5 172.5t106.5 150.5t144.5 107t174.5 40.5q87 0 164 -19t174 -71l-4 -23zM948 782q-52 30 -104 44.5t-80.5 16.5t-78.5 2h-15q-94 0 -179 -56.5t-141.5 -143t-89.5 -187t-33 -190.5q0 -102 44 -166.5t131 -64.5q35 0 75 20t78.5 52t92.5 91.5
t102 118t121 152.5z" />
    <glyph glyph-name="acircumflex" unicode="&#xe2;" 
d="M766 1214l-480 -219l13 -27l467 172l351 -172l12 27zM908 366q-27 -111 -34.5 -153.5t-7.5 -84.5q0 -91 59 -91q63 0 185 86l39 -47q-140 -101 -229 -101q-52 0 -84.5 43t-30.5 120q4 109 39 223q-50 -71 -85 -117.5t-84.5 -102.5t-91 -89t-91.5 -55.5t-99 -22.5
q-114 0 -172.5 81t-57.5 210q0 83 23 171.5t68.5 172.5t106.5 150.5t144.5 107t174.5 40.5q87 0 164 -19t174 -71l-4 -23zM948 782q-52 30 -104 44.5t-80.5 16.5t-78.5 2h-15q-94 0 -179 -56.5t-141.5 -143t-89.5 -187t-33 -190.5q0 -102 44 -166.5t131 -64.5q35 0 75 20
t78.5 52t92.5 91.5t102 118t121 152.5z" />
    <glyph glyph-name="atilde" unicode="&#xe3;" 
d="M904 1076q77 -2 187 136l44 -40q-132 -155 -231 -157q-16 0 -31.5 3t-27.5 6.5t-29 13t-25 14t-25.5 18.5t-22 17.5t-23 20t-20.5 18.5q-40 34 -88 36q-69 1 -189 -137l-45 39q138 158 234 160q17 0 33.5 -2.5t35 -11.5t28.5 -13t31 -20t25 -19t29 -24l24 -21
q34 -35 86 -37zM908 366q-27 -111 -34.5 -153.5t-7.5 -84.5q0 -91 59 -91q63 0 185 86l39 -47q-140 -101 -229 -101q-52 0 -84.5 43t-30.5 120q4 109 39 223q-50 -71 -85 -117.5t-84.5 -102.5t-91 -89t-91.5 -55.5t-99 -22.5q-114 0 -172.5 81t-57.5 210q0 83 23 171.5
t68.5 172.5t106.5 150.5t144.5 107t174.5 40.5q87 0 164 -19t174 -71l-4 -23zM948 782q-52 30 -104 44.5t-80.5 16.5t-78.5 2h-15q-94 0 -179 -56.5t-141.5 -143t-89.5 -187t-33 -190.5q0 -102 44 -166.5t131 -64.5q35 0 75 20t78.5 52t92.5 91.5t102 118t121 152.5z" />
    <glyph glyph-name="adieresis" unicode="&#xe4;" 
d="M640 1017q-19 -22 -49 -22q-29 -1 -49 20.5t-20 51.5q0 29 20 48.5t49 19.5t49.5 -20t19.5 -48q-2 -32 -20 -50zM1011 1017q-19 -22 -49 -22q-29 -1 -48.5 20t-20.5 52q-1 28 19.5 48t49.5 20q30 0 50.5 -20t18.5 -48q-1 -30 -20 -50zM908 366q-27 -111 -34.5 -153.5
t-7.5 -84.5q0 -91 59 -91q63 0 185 86l39 -47q-140 -101 -229 -101q-52 0 -84.5 43t-30.5 120q4 109 39 223q-50 -71 -85 -117.5t-84.5 -102.5t-91 -89t-91.5 -55.5t-99 -22.5q-114 0 -172.5 81t-57.5 210q0 83 23 171.5t68.5 172.5t106.5 150.5t144.5 107t174.5 40.5
q87 0 164 -19t174 -71l-4 -23zM948 782q-52 30 -104 44.5t-80.5 16.5t-78.5 2h-15q-94 0 -179 -56.5t-141.5 -143t-89.5 -187t-33 -190.5q0 -102 44 -166.5t131 -64.5q35 0 75 20t78.5 52t92.5 91.5t102 118t121 152.5z" />
    <glyph glyph-name="aring" unicode="&#xe5;" 
d="M763 995q-54 0 -94.5 39.5t-40.5 93.5t40 92t95 38q56 0 97 -38t41 -92t-41 -93.5t-97 -39.5zM763 1037q38 0 63.5 26t25.5 65q0 36 -25.5 60.5t-63.5 25.5t-62.5 -24t-25.5 -62q-1 -39 24.5 -65t63.5 -26zM908 366q-27 -111 -34.5 -153.5t-7.5 -84.5q0 -91 59 -91
q63 0 185 86l39 -47q-140 -101 -229 -101q-52 0 -84.5 43t-30.5 120q4 109 39 223q-50 -71 -85 -117.5t-84.5 -102.5t-91 -89t-91.5 -55.5t-99 -22.5q-114 0 -172.5 81t-57.5 210q0 83 23 171.5t68.5 172.5t106.5 150.5t144.5 107t174.5 40.5q87 0 164 -19t174 -71l-4 -23z
M948 782q-52 30 -104 44.5t-80.5 16.5t-78.5 2h-15q-94 0 -179 -56.5t-141.5 -143t-89.5 -187t-33 -190.5q0 -102 44 -166.5t131 -64.5q35 0 75 20t78.5 52t92.5 91.5t102 118t121 152.5z" />
    <glyph glyph-name="ae" unicode="&#xe6;" 
d="M502 435q-13 -59 -13 -113q-1 -128 89.5 -210.5t222.5 -77.5q181 5 320 217l46 -45q-38 -52 -71 -88t-77.5 -71.5t-98.5 -54t-116 -19.5q-168 -3 -279 106q-82 -65 -181 -89t-181.5 -5.5t-139.5 83t-60 163.5q-2 67 37.5 128.5t108 101.5t159.5 56.5t192 -6.5
q47 132 150 231q-27 48 -84 76t-118 30q-45 3 -84 -15q57 -22 57 -96q0 -44 -32.5 -80.5t-87.5 -37.5q-53 -1 -84.5 33.5t-31.5 84.5q-1 68 80 120t183 50q74 -2 140.5 -36.5t105.5 -90.5q150 118 331 127q35 2 69.5 -6.5t68.5 -30t54.5 -65.5t19.5 -105
q-1 -74 -42.5 -133.5t-111 -95.5t-158 -54t-188 -13t-195.5 31zM988 845q-91 -2 -183 -42.5t-170.5 -121.5t-115.5 -186q82 -25 170.5 -30.5t166 9.5t141 45t100.5 77t38 104q2 148 -147 145zM25 229q1 -76 46 -124.5t112.5 -60.5t149.5 8t154 72q-60 88 -59 200
q2 67 15 127q-104 24 -202.5 -1t-157.5 -85.5t-58 -135.5z" />
    <glyph glyph-name="ccedilla" unicode="&#xe7;" 
d="M492 34q127 0 234.5 58t180.5 158l42 -44q-69 -101 -187.5 -165t-253.5 -68l-25 -60q72 -14 109 -49.5t36 -88.5q2 -60 -48.5 -103.5t-123.5 -43.5q-103 0 -238 86l27 41q53 -34 112 -53t109 -21t83 22t33 72q0 17 -8.5 31t-19.5 23t-34 19t-38.5 15l-46.5 15
q-11 3 -16 5l36 92q-138 12 -218.5 105t-80.5 244q0 124 43 234t115 185.5t166.5 119.5t195.5 44q123 0 202.5 -56t79.5 -152q0 -137 -115 -139q-29 -1 -66 26.5t-36 73.5q1 60 37.5 90.5t89.5 23.5q-19 33 -75.5 52t-116.5 19q-84 0 -166 -38t-147.5 -104t-106 -166
t-40.5 -215q1 -132 76.5 -210t199.5 -78z" />
    <glyph glyph-name="egrave" unicode="&#xe8;" 
d="M474 1212l632 -190l-7 -41l-644 154zM723 907q126 0 206 -54t79 -153q-1 -75 -49.5 -135.5t-128.5 -96.5t-179 -54t-207 -12t-206 33q-12 -54 -12 -113q-1 -130 88.5 -209t223.5 -79q115 0 209.5 53.5t208.5 163.5l47 -45q-101 -99 -221.5 -166t-240.5 -67
q-158 0 -267.5 96.5t-108.5 254.5q0 123 49.5 233t128.5 185.5t179 119.5t201 45zM255 495q82 -27 179 -33t186 9t163 45t118.5 78.5t44.5 105.5q0 71 -63 108t-158 37q-147 -1 -281.5 -96.5t-188.5 -253.5z" />
    <glyph glyph-name="eacute" unicode="&#xe9;" 
d="M1062 1135l-642 -154l-10 41l634 190zM723 907q126 0 206 -54t79 -153q-1 -75 -49.5 -135.5t-128.5 -96.5t-179 -54t-207 -12t-206 33q-12 -54 -12 -113q-1 -130 88.5 -209t223.5 -79q115 0 209.5 53.5t208.5 163.5l47 -45q-101 -99 -221.5 -166t-240.5 -67
q-158 0 -267.5 96.5t-108.5 254.5q0 123 49.5 233t128.5 185.5t179 119.5t201 45zM255 495q82 -27 179 -33t186 9t163 45t118.5 78.5t44.5 105.5q0 71 -63 108t-158 37q-147 -1 -281.5 -96.5t-188.5 -253.5z" />
    <glyph glyph-name="ecircumflex" unicode="&#xea;" 
d="M769 1212l364 -219l-12 -27l-352 172l-467 -172l-12 27zM723 907q126 0 206 -54t79 -153q-1 -75 -49.5 -135.5t-128.5 -96.5t-179 -54t-207 -12t-206 33q-12 -54 -12 -113q-1 -130 88.5 -209t223.5 -79q115 0 209.5 53.5t208.5 163.5l47 -45q-101 -99 -221.5 -166
t-240.5 -67q-158 0 -267.5 96.5t-108.5 254.5q0 123 49.5 233t128.5 185.5t179 119.5t201 45zM255 495q82 -27 179 -33t186 9t163 45t118.5 78.5t44.5 105.5q0 71 -63 108t-158 37q-147 -1 -281.5 -96.5t-188.5 -253.5z" />
    <glyph glyph-name="edieresis" unicode="&#xeb;" 
d="M595 993q-29 -1 -49 20t-20 51q0 29 20 49t49 20t49.5 -20.5t19.5 -48.5q-2 -31 -20 -49q-19 -22 -49 -22zM966 1133q30 0 50.5 -20.5t18.5 -48.5q-1 -29 -20 -49q-19 -22 -49 -22q-29 -1 -48.5 19.5t-20.5 51.5q-1 28 19.5 48.5t49.5 20.5zM723 907q126 0 206 -54
t79 -153q-1 -75 -49.5 -135.5t-128.5 -96.5t-179 -54t-207 -12t-206 33q-12 -54 -12 -113q-1 -130 88.5 -209t223.5 -79q115 0 209.5 53.5t208.5 163.5l47 -45q-101 -99 -221.5 -166t-240.5 -67q-158 0 -267.5 96.5t-108.5 254.5q0 123 49.5 233t128.5 185.5t179 119.5
t201 45zM255 495q82 -27 179 -33t186 9t163 45t118.5 78.5t44.5 105.5q0 71 -63 108t-158 37q-147 -1 -281.5 -96.5t-188.5 -253.5z" />
    <glyph glyph-name="igrave" unicode="&#xec;" 
d="M1015 1025l-632 189l-19 -76l644 -155zM234 766q91 78 198 117.5t185.5 11.5t73.5 -136q-2 -42 -59.5 -161.5t-114.5 -242.5t-57 -176q-1 -76 52.5 -113t132 -33t169 39t162.5 93l39 -47q-89 -74 -197.5 -112.5t-199.5 -35t-153.5 55.5t-63.5 146q0 55 34 143t76 164.5
t78.5 156t39.5 118.5q6 84 -80 87q-83 2 -192 -61q-52 -30 -84 -62z" />
    <glyph glyph-name="iacute" unicode="&#xed;" 
d="M319 1025l10 -42l642 155l-17 76zM234 766q91 78 198 117.5t185.5 11.5t73.5 -136q-2 -42 -59.5 -161.5t-114.5 -242.5t-57 -176q-1 -76 52.5 -113t132 -33t169 39t162.5 93l39 -47q-89 -74 -197.5 -112.5t-199.5 -35t-153.5 55.5t-63.5 146q0 55 34 143t76 164.5
t78.5 156t39.5 118.5q6 84 -80 87q-83 2 -192 -61q-52 -30 -84 -62z" />
    <glyph glyph-name="icircumflex" unicode="&#xee;" 
d="M678 1214l-479 -219l12 -27l467 172l352 -172l12 27zM234 766q91 78 198 117.5t185.5 11.5t73.5 -136q-2 -42 -59.5 -161.5t-114.5 -242.5t-57 -176q-1 -76 52.5 -113t132 -33t169 39t162.5 93l39 -47q-89 -74 -197.5 -112.5t-199.5 -35t-153.5 55.5t-63.5 146
q0 55 34 143t76 164.5t78.5 156t39.5 118.5q6 84 -80 87q-83 2 -192 -61q-52 -30 -84 -62z" />
    <glyph glyph-name="idieresis" unicode="&#xef;" 
d="M553 1017q-19 -22 -49 -22q-29 -1 -49 20.5t-20 51.5q0 29 20 48.5t49 19.5t49.5 -20t19.5 -48q-2 -32 -20 -50zM924 1017q-19 -22 -49 -22q-29 -1 -48.5 20t-20.5 52q-1 28 19.5 48t49.5 20q30 0 50.5 -20t18.5 -48q-1 -30 -20 -50zM234 766q91 78 198 117.5t185.5 11.5
t73.5 -136q-2 -42 -59.5 -161.5t-114.5 -242.5t-57 -176q-1 -76 52.5 -113t132 -33t169 39t162.5 93l39 -47q-89 -74 -197.5 -112.5t-199.5 -35t-153.5 55.5t-63.5 146q0 55 34 143t76 164.5t78.5 156t39.5 118.5q6 84 -80 87q-83 2 -192 -61q-52 -30 -84 -62z" />
    <glyph glyph-name="eth" unicode="&#xf0;" 
d="M745 1109q299 -205 299 -667q0 -205 -117 -338t-302 -133q-107 0 -199.5 53.5t-148.5 150.5t-56 216q0 167 116 288.5t277 121.5q115 0 213 -55t156 -148q-57 334 -309 483l-200 -81l-29 54l157 64q-59 26 -118 41l-60 16l14 60l62 -17q103 -28 179 -69l223 90l29 -54z
M625 33q157 0 257.5 114.5t100.5 274.5q0 127 -111 222t-258 95q-137 0 -234 -100.5t-97 -247.5q0 -154 102 -256t240 -102z" />
    <glyph glyph-name="ntilde" unicode="&#xf1;" 
d="M904 1076q77 -2 187 136l44 -40q-132 -155 -231 -157q-16 0 -31.5 3t-27.5 6.5t-29 13t-25 14t-25.5 18.5t-22 17.5t-23 20t-20.5 18.5q-40 34 -88 36q-69 1 -189 -137l-45 39q138 158 234 160q17 0 33.5 -2.5t35 -11.5t28.5 -13t31 -20t25 -19t29 -24l24 -21
q34 -35 86 -37zM1165 111q-151 -138 -258 -138q-36 0 -58.5 15.5t-29.5 39.5t-7 48.5t6 48.5l116 448q39 150 41 194q4 79 -56 78q-84 -1 -181.5 -81t-190.5 -212q-257 -368 -301 -552h-57l152 704q7 34 10 54t2.5 43.5t-12 34t-32.5 9.5q-57 -3 -199 -84l-30 54
q154 87 232 91q75 2 93 -56t-6 -156q-52 -265 -107 -470q97 210 213 373q221 307 431 307q33 0 54.5 -13t30.5 -38.5t11.5 -55.5t-3.5 -73t-14.5 -80.5t-21.5 -88.5l-101 -385q-16 -60 -16.5 -90.5t9.5 -38.5t32 -7q80 1 206 121z" />
    <glyph glyph-name="ograve" unicode="&#xf2;" 
d="M1086 1025l-631 189l-20 -76l644 -155zM489 -32q-179 0 -283.5 138t-62.5 331q30 131 114.5 239.5t199.5 169.5t234 61q117 0 207 -62.5t129 -171.5t10 -236q-30 -131 -114.5 -239.5t-199.5 -169t-234 -60.5zM501 29q95 0 195.5 55.5t176.5 150.5t100 202
q39 177 -50.5 291.5t-249.5 116.5q-151 -2 -291.5 -123t-175.5 -285q-39 -182 48.5 -294t246.5 -114z" />
    <glyph glyph-name="oacute" unicode="&#xf3;" 
d="M391 1025l10 -42l641 155l-17 76zM489 -32q-179 0 -283.5 138t-62.5 331q30 131 114.5 239.5t199.5 169.5t234 61q117 0 207 -62.5t129 -171.5t10 -236q-30 -131 -114.5 -239.5t-199.5 -169t-234 -60.5zM501 29q95 0 195.5 55.5t176.5 150.5t100 202q39 177 -50.5 291.5
t-249.5 116.5q-151 -2 -291.5 -123t-175.5 -285q-39 -182 48.5 -294t246.5 -114z" />
    <glyph glyph-name="ocircumflex" unicode="&#xf4;" 
d="M750 1214l-480 -219l13 -27l467 172l351 -172l12 27zM489 -32q-179 0 -283.5 138t-62.5 331q30 131 114.5 239.5t199.5 169.5t234 61q117 0 207 -62.5t129 -171.5t10 -236q-30 -131 -114.5 -239.5t-199.5 -169t-234 -60.5zM501 29q95 0 195.5 55.5t176.5 150.5t100 202
q39 177 -50.5 291.5t-249.5 116.5q-151 -2 -291.5 -123t-175.5 -285q-39 -182 48.5 -294t246.5 -114z" />
    <glyph glyph-name="otilde" unicode="&#xf5;" 
d="M489 -32q-179 0 -283.5 138t-62.5 331q30 131 114.5 239.5t199.5 169.5t234 61q117 0 207 -62.5t129 -171.5t10 -236q-30 -131 -114.5 -239.5t-199.5 -169t-234 -60.5zM501 29q95 0 195.5 55.5t176.5 150.5t100 202q39 177 -50.5 291.5t-249.5 116.5q-151 -2 -291.5 -123
t-175.5 -285q-39 -182 48.5 -294t246.5 -114z" />
    <glyph glyph-name="odieresis" unicode="&#xf6;" 
d="M624 1017q-19 -22 -49 -22q-29 -1 -49 20.5t-20 51.5q0 29 20 48.5t49 19.5t49.5 -20t19.5 -48q-2 -32 -20 -50zM995 1017q-19 -22 -49 -22q-29 -1 -48.5 20t-20.5 52q-1 28 19.5 48t49.5 20q30 0 50.5 -20t18.5 -48q-1 -30 -20 -50zM489 -32q-179 0 -283.5 138
t-62.5 331q30 131 114.5 239.5t199.5 169.5t234 61q117 0 207 -62.5t129 -171.5t10 -236q-30 -131 -114.5 -239.5t-199.5 -169t-234 -60.5zM501 29q95 0 195.5 55.5t176.5 150.5t100 202q39 177 -50.5 291.5t-249.5 116.5q-151 -2 -291.5 -123t-175.5 -285
q-39 -182 48.5 -294t246.5 -114z" />
    <glyph glyph-name="divide" unicode="&#xf7;" 
d="M616 659q-50 0 -87 36.5t-37 84.5q0 51 36.5 87t87.5 36t86 -36t35 -87q0 -50 -35.5 -85.5t-85.5 -35.5zM1108 410v61h-985v-61h985zM702 14q-34 -37 -86 -37q-51 0 -87.5 35.5t-36.5 85.5t36.5 86.5t87.5 36.5q49 0 85 -36.5t36 -86.5q0 -49 -35 -84z" />
    <glyph glyph-name="oslash" unicode="&#xf8;" 
d="M930 818q73 -66 103 -166t4 -215q-30 -131 -114.5 -239.5t-199.5 -169t-234 -60.5q-73 0 -144 29l-158 -222l-49 39l151 213q-93 62 -134 171t-12 239q30 131 114.5 239.5t199.5 169.5t234 61q104 0 189 -52l131 183l49 -39zM206 437q-27 -123 6.5 -216t113.5 -143
l515 723q-73 42 -168 44q-151 -2 -291.5 -123t-175.5 -285zM973 437q23 103 0.5 187t-81.5 139l-509 -713q54 -19 118 -21q95 0 195.5 55.5t176.5 150.5t100 202z" />
    <glyph glyph-name="ugrave" unicode="&#xf9;" 
d="M1037 1025l-631 189l-20 -76l644 -155zM64 770q150 137 258 137q36 0 58.5 -15.5t29.5 -39.5t6.5 -48.5t-6.5 -48.5l-115 -447q-39 -151 -41 -195q-4 -79 56 -78q83 1 180 81.5t191 212.5q259 370 302 551h57l-152 -704q-7 -34 -10 -54t-2.5 -43.5t12 -33.5t32.5 -9
q26 2 81.5 25t117.5 58l29 -54q-154 -87 -231 -91q-75 -2 -93.5 56.5t5.5 156.5q52 265 107 470q-99 -214 -212 -373q-222 -308 -432 -308q-33 0 -54.5 13t-30.5 38.5t-11.5 55t4 73t15 81t21.5 88.5l101 386q16 60 16.5 90t-9.5 38t-32 7q-81 -1 -206 -120z" />
    <glyph glyph-name="uacute" unicode="&#xfa;" 
d="M342 1025l9 -42l642 155l-17 76zM64 770q150 137 258 137q36 0 58.5 -15.5t29.5 -39.5t6.5 -48.5t-6.5 -48.5l-115 -447q-39 -151 -41 -195q-4 -79 56 -78q83 1 180 81.5t191 212.5q259 370 302 551h57l-152 -704q-7 -34 -10 -54t-2.5 -43.5t12 -33.5t32.5 -9
q26 2 81.5 25t117.5 58l29 -54q-154 -87 -231 -91q-75 -2 -93.5 56.5t5.5 156.5q52 265 107 470q-99 -214 -212 -373q-222 -308 -432 -308q-33 0 -54.5 13t-30.5 38.5t-11.5 55t4 73t15 81t21.5 88.5l101 386q16 60 16.5 90t-9.5 38t-32 7q-81 -1 -206 -120z" />
    <glyph glyph-name="ucircumflex" unicode="&#xfb;" 
d="M700 1214l-479 -219l12 -27l467 172l352 -172l12 27zM64 770q150 137 258 137q36 0 58.5 -15.5t29.5 -39.5t6.5 -48.5t-6.5 -48.5l-115 -447q-39 -151 -41 -195q-4 -79 56 -78q83 1 180 81.5t191 212.5q259 370 302 551h57l-152 -704q-7 -34 -10 -54t-2.5 -43.5t12 -33.5
t32.5 -9q26 2 81.5 25t117.5 58l29 -54q-154 -87 -231 -91q-75 -2 -93.5 56.5t5.5 156.5q52 265 107 470q-99 -214 -212 -373q-222 -308 -432 -308q-33 0 -54.5 13t-30.5 38.5t-11.5 55t4 73t15 81t21.5 88.5l101 386q16 60 16.5 90t-9.5 38t-32 7q-81 -1 -206 -120z" />
    <glyph glyph-name="udieresis" unicode="&#xfc;" 
d="M575 1017q-19 -22 -49 -22q-29 -1 -49 20.5t-20 51.5q0 29 20 48.5t49 19.5t49.5 -20t19.5 -48q-2 -32 -20 -50zM946 1017q-19 -22 -49 -22q-29 -1 -48.5 20t-20.5 52q-1 28 19.5 48t49.5 20q30 0 50.5 -20t18.5 -48q-1 -30 -20 -50zM64 770q150 137 258 137
q36 0 58.5 -15.5t29.5 -39.5t6.5 -48.5t-6.5 -48.5l-115 -447q-39 -151 -41 -195q-4 -79 56 -78q83 1 180 81.5t191 212.5q259 370 302 551h57l-152 -704q-7 -34 -10 -54t-2.5 -43.5t12 -33.5t32.5 -9q26 2 81.5 25t117.5 58l29 -54q-154 -87 -231 -91q-75 -2 -93.5 56.5
t5.5 156.5q52 265 107 470q-99 -214 -212 -373q-222 -308 -432 -308q-33 0 -54.5 13t-30.5 38.5t-11.5 55t4 73t15 81t21.5 88.5l101 386q16 60 16.5 90t-9.5 38t-32 7q-81 -1 -206 -120z" />
    <glyph glyph-name="yacute" unicode="&#xfd;" 
d="M403 1025l10 -42l641 155l-17 76zM1038 880h63q-126 -604 -173 -779q-57 -212 -139 -309t-216 -115q-125 -17 -316 39l18 60q184 -51 285 -39q116 14 188.5 102t116.5 262q62 242 145 605q-28 -76 -76 -169.5t-115 -193.5t-139.5 -181.5t-156 -134.5t-156.5 -53
q-27 0 -46 9t-28.5 24.5t-13 38t-1.5 49t8.5 58.5t14.5 65t18 69q7 25 10 37l100 382q14 54 12.5 85t-12 43t-32.5 11q-26 -2 -81.5 -25t-117.5 -58l-30 54q157 89 231 91q60 1 90 -46t4 -146l-105 -408q-9 -35 -26.5 -84t-26.5 -77t-12.5 -57t11.5 -42t50 -14
q75 -1 175.5 89t192 223t168.5 276.5t118 258.5z" />
    <glyph glyph-name="thorn" unicode="&#xfe;" 
d="M803 907q117 0 207 -62.5t129.5 -171.5t10.5 -236q-30 -131 -114.5 -239.5t-199.5 -169t-234 -60.5q-117 0 -207 63.5t-128 169.5l-99 -466h190l-13 -62h-430l13 62h178l144 674q1 11 5 28q1 3 2.5 10.5t2.5 10.5l147 690h-33q-50 0 -92.5 -10t-69.5 -25.5t-45 -36
t-18 -41.5t11 -42l32 -49l-47 -42l-36 56q-20 31 -22 65.5t16.5 67t52.5 59t91 43t127 16.5h108l-114 -535q83 107 199 170t236 63zM1086 437q39 177 -50.5 291.5t-249.5 116.5q-151 -2 -291.5 -123t-175.5 -285q-39 -182 48.5 -294t246.5 -114q95 0 195.5 55.5t176.5 150.5
t100 202z" />
    <glyph glyph-name="ydieresis" unicode="&#xff;" 
d="M637 1017q-19 -22 -50 -22q-29 -1 -48.5 20t-19.5 52q0 29 19.5 48.5t48.5 19.5t49.5 -20t19.5 -48q-2 -33 -19 -50zM1008 1017q-19 -22 -50 -22q-29 -1 -48 20t-20 52q-1 29 19 48.5t49 19.5q30 0 50.5 -20t18.5 -48q-2 -31 -19 -50zM1038 880h63q-126 -604 -173 -779
q-57 -212 -139 -309t-216 -115q-125 -17 -316 39l18 60q184 -51 285 -39q116 14 188.5 102t116.5 262q62 242 145 605q-28 -76 -76 -169.5t-115 -193.5t-139.5 -181.5t-156 -134.5t-156.5 -53q-27 0 -46 9t-28.5 24.5t-13 38t-1.5 49t8.5 58.5t14.5 65t18 69q7 25 10 37
l100 382q14 54 12.5 85t-12 43t-32.5 11q-26 -2 -81.5 -25t-117.5 -58l-30 54q157 89 231 91q60 1 90 -46t4 -146l-105 -408q-9 -35 -26.5 -84t-26.5 -77t-12.5 -57t11.5 -42t50 -14q75 -1 175.5 89t192 223t168.5 276.5t118 258.5z" />
    <glyph glyph-name="Amacron" unicode="&#x100;" 
d="M958 61h141l-13 -61h-327l13 61h125v431h-394l-263 -431h110l-12 -61h-307l14 61h126l659 1087h-24q-50 0 -92.5 -10t-69.5 -25.5t-45 -36t-18 -41.5t11 -42l32 -49l-46 -42l-37 56q-20 31 -22 65.5t16.5 67t52.5 59t91 43t127 16.5h152v-1148zM540 553h357v585z" />
    <glyph glyph-name="Aogonek" unicode="&#x104;" 
d="M958 61h141l-13 -61h-327l13 61h125v431h-394l-263 -431h110l-12 -61h-307l14 61h126l659 1087h-24q-50 0 -92.5 -10t-69.5 -25.5t-45 -36t-18 -41.5t11 -42l32 -49l-46 -42l-37 56q-20 31 -22 65.5t16.5 67t52.5 59t91 43t127 16.5h152v-1148zM540 553h357v585z" />
    <glyph glyph-name="Cacute" unicode="&#x106;" 
d="M425 1349l10 -42l641 155l-17 76zM1074 312q-87 -153 -217.5 -246t-278.5 -93q-200 0 -322.5 124t-122.5 328q1 151 51.5 297.5t135 259.5t204.5 182.5t250 69.5q162 -1 260 -79.5t99 -223.5q1 -79 -42 -134t-106 -60q-42 -4 -81 27.5t-36 93.5q2 45 38 80t77 33
q30 -1 52 -10.5t27 -21.5q8 95 -61 163.5t-222 69.5q-119 0 -228.5 -65t-186.5 -171t-123.5 -241t-48.5 -272q2 -176 107 -282.5t283 -106.5q129 0 252.5 92t185.5 216z" />
    <glyph glyph-name="Ccaron" unicode="&#x10c;" 
d="M777 1293l474 216l-12 27l-462 -170l-357 170l-12 -27zM1074 312q-87 -153 -217.5 -246t-278.5 -93q-200 0 -322.5 124t-122.5 328q1 151 51.5 297.5t135 259.5t204.5 182.5t250 69.5q162 -1 260 -79.5t99 -223.5q1 -79 -42 -134t-106 -60q-42 -4 -81 27.5t-36 93.5
q2 45 38 80t77 33q30 -1 52 -10.5t27 -21.5q8 95 -61 163.5t-222 69.5q-119 0 -228.5 -65t-186.5 -171t-123.5 -241t-48.5 -272q2 -176 107 -282.5t283 -106.5q129 0 252.5 92t185.5 216z" />
    <glyph glyph-name="Dcaron" unicode="&#x10e;" 
d="M1096 1507l-474 -217l-369 217l12 27l357 -170l462 170zM646 1209q289 0 441 -185q121 -147 120 -365q-1 -209 -112 -384q-119 -186 -314 -248q-84 -27 -176 -27h-566l15 61h214l228 1087h-52q-50 0 -92.5 -10t-69.5 -25.5t-45 -36t-18 -41.5t11 -42l32 -49l-47 -42
l-37 56q-20 31 -22 65.5t16.5 67t53 59t91.5 43t127 16.5h202zM602 61q221 0 374 162q128 136 161 331q34 200 -50 357q-94 178 -305 223q-65 14 -138 14h-79l-226 -1087h263z" />
    <glyph glyph-name="Emacron" unicode="&#x112;" 
d="M612 1440l-15 -61h583l14 61h-582zM1256 1209l-89 -430h-64l77 369h-561l-103 -514h332l32 145h64l-89 -391h-64l42 185h-329l-103 -512h550l81 376l62 -7l-91 -430h-868l15 61h189l219 1087h-133q-46 0 -82 -25t-53.5 -58.5t-25 -63t-3.5 -43.5h-62q-4 24 7.5 64
t36.5 82.5t73 73.5t109 31h831z" />
    <glyph glyph-name="Edotaccent" unicode="&#x116;" 
d="M878 1361q-29 -30 -74 -32q-43 -2 -73 29t-32 74q-2 42 29.5 74.5t75.5 31.5q43 -1 76.5 -33t29.5 -73q-3 -41 -32 -71zM1256 1209l-89 -430h-64l77 369h-561l-103 -514h332l32 145h64l-89 -391h-64l42 185h-329l-103 -512h550l81 376l62 -7l-91 -430h-868l15 61h189
l219 1087h-133q-46 0 -82 -25t-53.5 -58.5t-25 -63t-3.5 -43.5h-62q-4 24 7.5 64t36.5 82.5t73 73.5t109 31h831z" />
    <glyph glyph-name="Eogonek" unicode="&#x118;" 
d="M1256 1209l-89 -430h-64l77 369h-561l-103 -514h332l32 145h64l-89 -391h-64l42 185h-329l-103 -512h550l81 376l62 -7l-91 -430h-868l15 61h189l219 1087h-133q-46 0 -82 -25t-53.5 -58.5t-25 -63t-3.5 -43.5h-62q-4 24 7.5 64t36.5 82.5t73 73.5t109 31h831z" />
    <glyph glyph-name="Ecaron" unicode="&#x11a;" 
d="M1256 1209l-89 -430h-64l77 369h-561l-103 -514h332l32 145h64l-89 -391h-64l42 185h-329l-103 -512h550l81 376l62 -7l-91 -430h-868l15 61h189l219 1087h-133q-46 0 -82 -25t-53.5 -58.5t-25 -63t-3.5 -43.5h-62q-4 24 7.5 64t36.5 82.5t73 73.5t109 31h831z" />
    <glyph glyph-name="uni0122" unicode="&#x122;" 
d="M769 543h413l-17 -61h-162l-108 -482h-64l32 142q-37 -52 -147 -110.5t-205 -58.5q-201 0 -323.5 124t-121.5 328q0 119 39 239.5t108 221.5t157 180t193.5 123.5t210.5 44.5q165 -1 258 -69t94 -211q2 -78 -36.5 -120t-104.5 -45q-37 -2 -68.5 28t-31.5 70
q0 46 28.5 76.5t69.5 29.5q30 -1 52 -10.5t27 -21.5q-4 106 -65.5 158t-217.5 53q-120 0 -240.5 -65.5t-211 -170t-147 -241.5t-55.5 -272q2 -176 107 -283t284 -106q76 0 183.5 59.5t184.5 143.5l55 245h-187z" />
    <glyph glyph-name="Imacron" unicode="&#x12a;" 
d="M578 61h373l-12 -61h-806l12 61h371l219 1087h-430l12 61h863l-13 -61h-371z" />
    <glyph glyph-name="Iogonek" unicode="&#x12e;" 
d="M578 61h373l-12 -61h-806l12 61h371l219 1087h-430l12 61h863l-13 -61h-371z" />
    <glyph glyph-name="dotlessi" unicode="&#x131;" 
d="M234 766q91 78 198 117.5t185.5 11.5t73.5 -136q-2 -42 -59.5 -161.5t-114.5 -242.5t-57 -176q-1 -76 52.5 -113t132 -33t169 39t162.5 93l39 -47q-89 -74 -197.5 -112.5t-199.5 -35t-153.5 55.5t-63.5 146q0 55 34 143t76 164.5t78.5 156t39.5 118.5q6 84 -80 87
q-83 2 -192 -61q-52 -30 -84 -62z" />
    <glyph glyph-name="Lacute" unicode="&#x139;" 
d="M378 1349l10 -42l642 155l-17 76zM968 1025q-39 76 -101 112t-132 35q-94 -1 -170.5 -65.5t-102.5 -184.5l-182 -861h647l66 332l61 -7l-76 -386h-936l12 61h162l187 873q29 143 123.5 221t210.5 79q84 1 158.5 -42t121.5 -130z" />
    <glyph glyph-name="Lcaron" unicode="&#x13d;" 
d="M722 1296l474 216l-12 27l-462 -170l-356 170l-13 -27zM968 1025q-39 76 -101 112t-132 35q-94 -1 -170.5 -65.5t-102.5 -184.5l-182 -861h647l66 332l61 -7l-76 -386h-936l12 61h162l187 873q29 143 123.5 221t210.5 79q84 1 158.5 -42t121.5 -130z" />
    <glyph glyph-name="Lslash" unicode="&#x141;" 
d="M993 393l61 -7l-76 -386h-936l12 61h162l102 477l-220 -108l-24 54l260 128l69 322q29 143 123.5 221t210.5 79q84 1 158.5 -42t121.5 -130l-49 -37q-39 76 -101 112t-132 35q-94 -1 -170.5 -65.5t-102.5 -184.5l-58 -276l260 128l24 -54l-300 -147l-108 -512h647z" />
    <glyph glyph-name="lslash" unicode="&#x142;" 
d="M955 214l52 -32q-66 -102 -139.5 -156t-167.5 -53q-28 0 -53.5 5.5t-54 18.5t-48 37.5t-32 59.5t-9.5 88.5t22 119.5l74 255l-257 -127l-25 54l304 150l96 332q31 92 23 148.5t-67 57.5q-73 1 -190 -65.5t-169 -143.5l-34 45q50 85 175.5 155t222.5 66q51 -2 82 -27
t42 -79.5t-16 -141.5l-90 -310l211 103l24 -54l-257 -126l-82 -287q-20 -70 -23.5 -122t6 -80.5t31 -45t43.5 -21t51 -4.5q142 1 255 180z" />
    <glyph glyph-name="Nacute" unicode="&#x143;" 
d="M1067 1462l-642 -155l-10 42l634 189zM944 1209h390l-12 -61h-162l-241 -1148h-96l-300 1148l-231 -1087h155l-12 -61h-334l12 61h118l231 1087h-45q-45 0 -80 -25t-52.5 -58.5t-26 -63t-6.5 -43.5h-62q-2 24 10 63.5t36.5 82t71 73.5t104.5 32h163l294 -1146l230 1085
h-168z" />
    <glyph glyph-name="uni0145" unicode="&#x145;" 
d="M944 1209h390l-12 -61h-162l-241 -1148h-96l-300 1148l-231 -1087h155l-12 -61h-334l12 61h118l231 1087h-45q-45 0 -80 -25t-52.5 -58.5t-26 -63t-6.5 -43.5h-62q-2 24 10 63.5t36.5 82t71 73.5t104.5 32h163l294 -1146l230 1085h-168z" />
    <glyph glyph-name="Ncaron" unicode="&#x147;" 
d="M1241 1509l-474 -216l-369 216l12 27l357 -170l462 170zM944 1209h390l-12 -61h-162l-241 -1148h-96l-300 1148l-231 -1087h155l-12 -61h-334l12 61h118l231 1087h-45q-45 0 -80 -25t-52.5 -58.5t-26 -63t-6.5 -43.5h-62q-2 24 10 63.5t36.5 82t71 73.5t104.5 32h163
l294 -1146l230 1085h-168z" />
    <glyph glyph-name="Omacron" unicode="&#x14c;" 
d="M1101 605q-27 -126 -83 -239t-134.5 -201.5t-183.5 -140.5t-221 -51q-89 1 -160.5 34t-115.5 91.5t-70.5 137.5t-26 171.5t18.5 194.5q35 171 122 314t219.5 231t280.5 87q91 -1 162.5 -34.5t116 -91t70.5 -136t25 -171t-20 -196.5zM189 605q-36 -154 -14.5 -284.5
t100.5 -207.5q82 -79 217 -79q123 0 237.5 80t194.5 209.5t116 283.5q22 93 23.5 178t-19 156t-60 123t-103.5 80.5t-146 27.5q-100 -1 -192.5 -51t-161.5 -131.5t-119 -180.5t-73 -204z" />
    <glyph glyph-name="OE" unicode="&#x152;" 
d="M659 1209h663l-88 -430h-64l76 369h-536l-105 -514h331l32 145h64l-88 -391h-64l42 185h-330l-103 -512h526l81 376l62 -7l-91 -430h-642q-85 3 -159 47t-123.5 118t-78 164.5t-26 195t37.5 202.5q80 228 240.5 353t342.5 129zM428 62l217 1081q-99 -1 -192 -44.5
t-179 -142.5t-136 -241q-30 -85 -34 -177.5t18.5 -175t63.5 -150t104 -108t138 -42.5z" />
    <glyph glyph-name="oe" unicode="&#x153;" 
d="M642 428q-6 -35 -10 -106q-5 -139 52 -214t186 -74q141 0 243 111l42 -52q-118 -120 -283 -120q-129 -1 -204 64.5t-93 185.5q-61 -116 -151 -183.5t-183 -66.5q-67 1 -117 27.5t-78 71.5t-40.5 99.5t-10.5 116.5q3 110 32 217.5t79 198t128.5 146.5t171.5 57
q91 0 159.5 -77.5t80.5 -183.5v-1q59 122 148.5 192t186.5 70q121 0 201 -54t84 -153q3 -74 -30.5 -133t-94.5 -95.5t-141 -55t-172.5 -15.5t-185.5 27zM238 34q98 -1 181.5 83.5t128 211t42.5 253.5q-2 112 -54.5 193t-129.5 75q-82 -6 -150 -60.5t-110.5 -136t-65.5 -177
t-23 -188.5q1 -118 44.5 -186t136.5 -68zM983 845q-105 -2 -196.5 -98.5t-131.5 -257.5q79 -24 161 -28.5t152 10.5t125 44.5t84.5 77.5t26.5 107q-3 48 -37 82t-82 49t-102 14z" />
    <glyph glyph-name="Racute" unicode="&#x154;" 
d="M1030 1462l-642 -155l-10 42l635 189zM1086 229l60 -16q-18 -69 -47.5 -119t-62 -74.5t-61 -35.5t-56.5 -11t-49.5 3t-41.5 15.5t-34.5 25t-33 43t-31.5 56t-34.5 77.5t-38.5 95t-48 120.5t-58 142.5l-244 2l-104 -492h199l-13 -61h-445l13 61h184l231 1085
q-108 -9 -158.5 -56.5t-19.5 -96.5l32 -49l-47 -42l-37 56q-20 31 -22 65.5t16.5 67t53 59t91.5 43t127 16.5h271q202 -1 303.5 -85.5t97.5 -224.5q-2 -68 -28.5 -127.5t-79 -109.5t-143.5 -79.5t-210 -31.5q26 -63 53.5 -132t43 -110t34 -85.5t29 -68t24.5 -48.5t24.5 -36
t25 -21t29.5 -13t36 -3q34 0 58.5 11t44.5 40t33 59t33 85zM433 1148l-114 -534l283 -2q205 -1 310 83t105 207q0 117 -82 181t-269 65h-233z" />
    <glyph glyph-name="Rcaron" unicode="&#x158;" 
d="M1204 1509l-474 -216l-369 216l13 27l356 -170l462 170zM917 34q34 0 58.5 11t44.5 40t33 59t33 85l60 -16q-18 -69 -47.5 -119t-62 -74.5t-61 -35.5t-56.5 -11t-49.5 3t-41.5 15.5t-34.5 25t-33 43t-31.5 56t-34.5 77.5t-38.5 95t-48 120.5t-58 142.5l-244 2l-104 -492
h199l-13 -61h-445l13 61h184l231 1085q-108 -9 -158.5 -56.5t-19.5 -96.5l32 -49l-47 -42l-37 56q-20 31 -22 65.5t16.5 67t53 59t91.5 43t127 16.5h271q202 -1 303.5 -85.5t97.5 -224.5q-2 -68 -28.5 -127.5t-79 -109.5t-143.5 -79.5t-210 -31.5q26 -63 53.5 -132t43 -110
t34 -85.5t29 -68t24.5 -48.5t24.5 -36t25 -21t29.5 -13t36 -3zM433 1148l-114 -534l283 -2q205 -1 310 83t105 207q0 117 -82 181t-269 65h-233z" />
    <glyph glyph-name="Sacute" unicode="&#x15a;" 
d="M585 1348l10 -42l641 155l-17 76zM944 307q0 -61 -27.5 -110t-70.5 -79t-98 -50t-106 -27.5t-99 -6.5q-105 2 -220.5 42.5t-172.5 97.5q56 -14 96.5 25.5t41.5 95.5q1 47 -36 81t-85 32q-50 -2 -83 -42t-32 -120q1 -60 54 -113.5t130 -87t158.5 -53t146.5 -19.5
q66 0 130.5 11.5t125.5 37.5t107 64t74 95t27 126q1 58 -25 106.5t-77 86.5t-106 65.5t-133 56.5q-197 74 -251 104q-78 44 -97 108q-9 30 -9 73q0 65 38.5 117.5t99 83.5t126 47t127.5 17q207 2 317 -100q-57 9 -100.5 -24t-42.5 -92q1 -55 39 -86t74 -30q65 1 97 43t31 95
q0 80 -61 140t-153.5 88.5t-198.5 27.5q-114 -1 -216 -39t-169.5 -114t-68.5 -174q0 -47 9 -85t33 -68t47.5 -51t69.5 -43.5t79.5 -36t96.5 -36.5q73 -27 119 -46t98 -46.5t80.5 -53t47.5 -60.5t18 -74z" />
    <glyph glyph-name="Scaron" unicode="&#x160;" 
d="M720 1291l474 217l-12 27l-462 -170l-356 170l-13 -27zM944 307q0 -61 -27.5 -110t-70.5 -79t-98 -50t-106 -27.5t-99 -6.5q-105 2 -220.5 42.5t-172.5 97.5q56 -14 96.5 25.5t41.5 95.5q1 47 -36 81t-85 32q-50 -2 -83 -42t-32 -120q1 -60 54 -113.5t130 -87t158.5 -53
t146.5 -19.5q66 0 130.5 11.5t125.5 37.5t107 64t74 95t27 126q1 58 -25 106.5t-77 86.5t-106 65.5t-133 56.5q-197 74 -251 104q-78 44 -97 108q-9 30 -9 73q0 65 38.5 117.5t99 83.5t126 47t127.5 17q207 2 317 -100q-57 9 -100.5 -24t-42.5 -92q1 -55 39 -86t74 -30
q65 1 97 43t31 95q0 80 -61 140t-153.5 88.5t-198.5 27.5q-114 -1 -216 -39t-169.5 -114t-68.5 -174q0 -47 9 -85t33 -68t47.5 -51t69.5 -43.5t79.5 -36t96.5 -36.5q73 -27 119 -46t98 -46.5t80.5 -53t47.5 -60.5t18 -74z" />
    <glyph glyph-name="scaron" unicode="&#x161;" 
d="M700 968l475 217l-13 27l-462 -170l-356 170l-12 -27zM565 37q131 0 209 51.5t76 127.5q-1 70 -64.5 115t-193.5 89q-137 46 -194 94.5t-61 144.5q-5 111 98 180t256 68q160 1 262 -61t103 -160q1 -40 -28.5 -65.5t-63.5 -25.5q-36 0 -63 25t-29 56q-2 36 17.5 65
t62.5 37q-118 65 -264 67q-125 2 -206 -46.5t-84 -139.5q-1 -66 42.5 -101.5t168.5 -78.5q168 -59 236.5 -116.5t66.5 -146.5q-2 -101 -95 -171t-254 -70q-174 0 -281.5 65t-111.5 166q-1 36 28.5 63.5t63.5 26.5q42 -1 67.5 -30t24.5 -56q-1 -41 -22 -66t-49 -30
q40 -42 106.5 -59.5t175.5 -17.5z" />
    <glyph glyph-name="Tcaron" unicode="&#x164;" 
d="M759 1293l475 216l-13 27l-462 -170l-356 170l-12 -27zM794 0l12 61h-246l234 1087h408l-89 -411h62l100 472h-1002l-99 -472h62l86 411h408l-234 -1087h-245l-13 -61h556z" />
    <glyph glyph-name="Umacron" unicode="&#x16a;" 
d="M489 1418l-15 -61h583l15 61h-583zM511 -27q-168 0 -261 110.5t-58 282.5l164 782h-186l14 61h430l-14 -61h-180l-167 -782q-34 -157 43 -244.5t227 -87.5q144 0 262 92t151 243l175 779h-187l10 61h430l-10 -61h-179l-175 -779q-29 -130 -104 -221t-173 -133t-212 -42z
" />
    <glyph glyph-name="Uring" unicode="&#x16e;" 
d="M752 1295q-54 0 -94.5 39.5t-40.5 93.5t40 92t95 38q56 0 97 -38t41 -92t-41 -93.5t-97 -39.5zM752 1337q38 0 63 26t25 65q0 36 -25 60.5t-63 25.5t-62.5 -24t-25.5 -62q-1 -39 24.5 -65t63.5 -26zM511 -27q-168 0 -261 110.5t-58 282.5l164 782h-186l14 61h430l-14 -61
h-180l-167 -782q-34 -157 43 -244.5t227 -87.5q144 0 262 92t151 243l175 779h-187l10 61h430l-10 -61h-179l-175 -779q-29 -130 -104 -221t-173 -133t-212 -42z" />
    <glyph glyph-name="Uhungarumlaut" unicode="&#x170;" 
d="M511 -27q-168 0 -261 110.5t-58 282.5l164 782h-186l14 61h430l-14 -61h-180l-167 -782q-34 -157 43 -244.5t227 -87.5q144 0 262 92t151 243l175 779h-187l10 61h430l-10 -61h-179l-175 -779q-29 -130 -104 -221t-173 -133t-212 -42z" />
    <glyph glyph-name="Uogonek" unicode="&#x172;" 
d="M511 -27q-168 0 -261 110.5t-58 282.5l164 782h-186l14 61h430l-14 -61h-180l-167 -782q-34 -157 43 -244.5t227 -87.5q144 0 262 92t151 243l175 779h-187l10 61h430l-10 -61h-179l-175 -779q-29 -130 -104 -221t-173 -133t-212 -42z" />
    <glyph glyph-name="Ydieresis" unicode="&#x178;" 
d="M632 1344q-19 -22 -50 -22q-29 -1 -48.5 20t-19.5 51q0 29 19.5 49t48.5 20t49.5 -20.5t19.5 -48.5q-2 -32 -19 -49zM1003 1344q-19 -22 -49 -22q-29 -1 -48.5 19.5t-20.5 51.5q-1 28 19.5 48.5t49.5 20.5q30 0 50 -20.5t18 -48.5q-2 -30 -19 -49zM246 61h246l95 426
l-196 658h-175l17 64h413l-14 -61l-180 -3l177 -587l433 587h-187l15 64h410l-15 -64h-150l-486 -658l-96 -426h248l-15 -61h-553z" />
    <glyph glyph-name="Zacute" unicode="&#x179;" 
d="M423 1324l10 -42l642 155l-18 76zM813 0h-702v64l963 1081h-740l-110 -506h-62l121 568h870v-62l-956 -1084h616q85 0 141.5 19.5t79.5 51t29.5 69.5t-5.5 78.5t-28.5 74t-37.5 59.5l47 40q30 -34 51 -80t30.5 -97t-3 -100t-44 -88.5t-98.5 -63.5t-162 -24z" />
    <glyph glyph-name="Zdotaccent" unicode="&#x17b;" 
d="M859 1335q-29 -30 -73 -32q-43 -2 -73.5 29.5t-32.5 74.5q-2 42 30 74t76 31q43 -1 76 -32.5t29 -72.5q-3 -42 -32 -72zM813 0h-702v64l963 1081h-740l-110 -506h-62l121 568h870v-62l-956 -1084h616q85 0 141.5 19.5t79.5 51t29.5 69.5t-5.5 78.5t-28.5 74t-37.5 59.5
l47 40q30 -34 51 -80t30.5 -97t-3 -100t-44 -88.5t-98.5 -63.5t-162 -24z" />
    <glyph glyph-name="Zcaron" unicode="&#x17d;" 
d="M775 1267l474 217l-12 27l-462 -170l-356 170l-13 -27zM813 0h-702v64l963 1081h-740l-110 -506h-62l121 568h870v-62l-956 -1084h616q85 0 141.5 19.5t79.5 51t29.5 69.5t-5.5 78.5t-28.5 74t-37.5 59.5l47 40q30 -34 51 -80t30.5 -97t-3 -100t-44 -88.5t-98.5 -63.5
t-162 -24z" />
    <glyph glyph-name="zcaron" unicode="&#x17e;" 
d="M1130 1185l-474 -217l-368 217l12 27l356 -170l462 170zM782 35q20 0 37.5 4t36 17t30.5 22.5t33 35t31 38.5t37 50t40 54l51 -34q-9 -13 -29.5 -41.5t-30 -41.5t-28 -37t-30.5 -36l-30 -30t-33 -26.5t-34 -18t-39 -13.5t-42 -4q-45 0 -79.5 15t-58.5 37t-49.5 43.5
t-65.5 36.5t-93 15q-25 0 -43.5 -2.5t-58.5 -14.5t-88.5 -45.5t-100.5 -85.5l-44 44l709 709q-2 2 -25.5 20t-32.5 24t-34 22t-45 22.5t-50 15.5t-64 12.5t-72 2.5q-52 -1 -90.5 -10t-52.5 -16.5t-36 -22.5q33 -7 65.5 -34.5t33.5 -73.5q0 -36 -13.5 -63t-34 -40t-39 -19
t-34.5 -6q-51 0 -83.5 38.5t-32.5 82.5q0 86 92 156t225 70q49 0 93 -6.5t72.5 -14t63 -25t49 -27t48 -32.5t43.5 -30l137 137l39 -44l-700 -705q64 22 105 22q64 0 110.5 -15t72.5 -37t47.5 -43.5t49.5 -36.5t65 -15z" />
    <glyph glyph-name="florin" unicode="&#x192;" 
d="M1030 1234q90 -1 157 -46.5t97 -110.5t27 -135q-1 -46 -30 -72t-66 -28q-41 -2 -74.5 28t-32.5 70q1 68 47 91.5t79 12.5q-3 38 -64.5 81.5t-137.5 46.5q-107 4 -209 -96q-49 -48 -77 -106.5t-55 -170.5h361l-15 -62h-360q-20 -96 -23 -113q-8 -38 -91 -501
q-16 -88 -35.5 -154.5t-48.5 -124t-66.5 -93.5t-90 -57t-118.5 -21q-101 -1 -166.5 59.5t-62.5 164.5q2 51 29.5 84t74.5 34q35 1 68 -24t34 -67q1 -68 -43 -96t-86 -15q35 -84 152 -81q58 2 102.5 21.5t74.5 51t53.5 83t38 105t28.5 130.5l91 501q5 32 22 113h-304l14 62
h303q29 127 62 194t95 128q116 114 246 113z" />
    <glyph glyph-name="circumflex" unicode="&#x2c6;" 
d="M799 1212l-480 -219l13 -27l467 172l351 -172l12 27z" />
    <glyph glyph-name="caron" unicode="&#x2c7;" 
d="M683 966l475 216l-13 27l-462 -169l-356 169l-12 -27z" />
    <glyph glyph-name="breve" unicode="&#x2d8;" 
d="M511 1209h64q8 -68 62.5 -113.5t124.5 -46.5q67 -1 120 45.5t64 114.5h64q-1 -92 -74.5 -155t-173.5 -64q-97 -1 -168.5 62.5t-82.5 156.5z" />
    <glyph glyph-name="dotaccent" unicode="&#x2d9;" 
d="M806 1032q-29 -30 -74 -32q-43 -2 -73 29t-32 74q-2 42 29.5 74.5t75.5 31.5q43 -1 76.5 -33t29.5 -73q-3 -41 -32 -71z" />
    <glyph glyph-name="ring" unicode="&#x2da;" 
d="M759 993q-54 0 -94.5 39.5t-40.5 93.5t40 92t95 38q56 0 97 -38t41 -92t-41 -93.5t-97 -39.5zM759 1035q38 0 63.5 26t25.5 65q0 36 -25.5 60.5t-63.5 25.5t-62.5 -24t-25.5 -62q-1 -39 24.5 -65t63.5 -26z" />
    <glyph glyph-name="ogonek" unicode="&#x2db;" 
 />
    <glyph glyph-name="tilde" unicode="&#x2dc;" 
d="M904 1076q77 -2 187 136l44 -40q-132 -155 -231 -157q-16 0 -31.5 3t-27.5 6.5t-29 13t-25 14t-25.5 18.5t-22 17.5t-23 20t-20.5 18.5q-40 34 -88 36q-69 1 -189 -137l-45 39q138 158 234 160q17 0 33.5 -2.5t35 -11.5t28.5 -13t31 -20t25 -19t29 -24l24 -21
q34 -35 86 -37z" />
    <glyph glyph-name="hungarumlaut" unicode="&#x2dd;" 
 />
    <glyph glyph-name="uni0394" unicode="&#x394;" 
d="M135 90v-90h944v94l-428 1135h-86zM197 66l411 1088l412 -1088h-823z" />
    <glyph glyph-name="uni03A9" unicode="&#x3a9;" 
d="M483 0h-417v66h335l-45 71q-74 117 -114.5 186.5t-78 148.5t-52.5 143.5t-15 132.5q0 84 32.5 168.5t92.5 150.5q147 160 389 160q240 0 387 -160q60 -66 92.5 -150.5t32.5 -168.5q0 -79 -32.5 -175.5t-65 -157.5t-84.5 -149q-23 -40 -69 -114.5t-52 -85.5h336v-66h-418
v80q162 227 241 387.5t79 282.5q0 153 -111 276q-122 135 -336 135t-336 -135q-110 -122 -110 -276q0 -129 75.5 -282t243.5 -388v-80z" />
    <glyph glyph-name="pi" unicode="&#x3c0;" 
d="M352 0h-61v819h-156v62h924v-62h-156v-682q0 -102 51 -102q29 0 58 49.5t72 146.5l6 15l55 -27q-59 -133 -81 -168q-49 -78 -110 -78q-109 0 -112 164v682h-490v-819z" />
    <glyph glyph-name="endash" unicode="&#x2013;" 
d="M256 567v-61h737v61h-737z" />
    <glyph glyph-name="emdash" unicode="&#x2014;" 
d="M0 528v-67h1229v67h-1229z" />
    <glyph glyph-name="quoteleft" unicode="&#x2018;" 
d="M473 1237l37 -50q-90 -50 -143.5 -123.5t-60.5 -159.5q20 16 51 22q53 9 97 -23.5t55 -87.5q9 -46 -23 -91.5t-84 -54.5q-55 -9 -100.5 26.5t-62.5 128.5q-18 103 37 212.5t197 200.5z" />
    <glyph glyph-name="quoteright" unicode="&#x2019;" 
d="M563 668l-38 50q90 50 144 123.5t61 159.5q-18 -14 -51 -21q-53 -9 -97 23.5t-55 87.5q-9 46 23 91.5t84 54.5q55 9 100.5 -27t62.5 -129q18 -103 -37 -212.5t-197 -200.5z" />
    <glyph glyph-name="quotesinglbase" unicode="&#x201a;" 
d="M416 -305l-28 56q97 34 162.5 97t87.5 146q-22 -12 -54 -12q-54 0 -91.5 39.5t-38.5 95.5q-1 47 38 86.5t92 39.5q56 0 95 -44t39 -138q0 -105 -73.5 -203t-228.5 -163z" />
    <glyph glyph-name="quotedblleft" unicode="&#x201c;" 
d="M503 1233l37 -49q-90 -50 -144 -124t-61 -160q20 16 51 22q53 9 97 -23.5t55 -87.5q9 -46 -22.5 -91.5t-83.5 -54.5q-55 -9 -101 26.5t-63 128.5q-18 103 37.5 212.5t197.5 200.5zM883 1233l38 -49q-90 -50 -144 -124t-61 -160q20 16 51 22q53 9 97 -23.5t55 -87.5
q9 -46 -22.5 -91.5t-83.5 -54.5q-55 -9 -101 26.5t-63 128.5q-18 103 37 212.5t197 200.5z" />
    <glyph glyph-name="quotedblright" unicode="&#x201d;" 
d="M273 668l-38 50q90 50 144 123.5t61 159.5q-20 -16 -51 -22q-53 -9 -97 23.5t-55 87.5q-9 46 22.5 91.5t83.5 54.5q55 9 101 -26.5t63 -128.5q18 -103 -37 -212.5t-197 -200.5zM654 668l-38 50q90 50 144 123.5t61 159.5q-20 -16 -51 -22q-53 -9 -97 23.5t-55 87.5
q-9 46 22.5 91.5t83.5 54.5q55 9 101 -26.5t63 -128.5q18 -103 -37 -212.5t-197 -200.5z" />
    <glyph glyph-name="quotedblbase" unicode="&#x201e;" 
d="M488 -311l-28 55q97 34 162.5 97.5t87.5 146.5q-24 -13 -54 -13q-54 0 -91.5 40t-38.5 96q-1 47 38 86.5t92 39.5q56 0 95 -44t39 -138q0 -105 -73.5 -203t-228.5 -163z" />
    <glyph glyph-name="dagger" unicode="&#x2020;" 
d="M883 919q96 -20 151 -66t41 -102q-10 -42 -41.5 -69.5t-75.5 -17.5q-52 11 -70.5 49.5t-10.5 79.5q3 24 35 53q-12 6 -29 9q-34 7 -89.5 -1.5t-81.5 -32.5l-216 -1007h-61l217 1014q-17 32 -72.5 53.5t-91.5 21.5q-18 0 -31 -3q23 -31 23 -59q1 -41 -26 -75.5t-80 -34.5
q-45 0 -69.5 33t-26.5 76q-1 58 62 91.5t161 33.5q40 0 89 -18.5t79 -37.5l70 326h62l-71 -328q88 26 153 12z" />
    <glyph glyph-name="daggerdbl" unicode="&#x2021;" 
d="M883 919q96 -20 151 -66t41 -102q-10 -42 -41.5 -69.5t-75.5 -17.5q-52 11 -70.5 49.5t-10.5 79.5q3 24 35 53q-12 6 -29 9q-34 7 -89.5 -1.5t-81.5 -32.5l-52 -244q86 27 157 13q96 -20 150.5 -66t40.5 -102q-10 -42 -41 -69.5t-75 -17.5q-52 11 -70.5 49.5t-10.5 79.5
q3 24 35 53q-16 8 -29 10q-35 7 -94.5 -3t-82.5 -38l-144 -672h-61l148 690q-20 30 -74 50t-88 20q-17 0 -30 -3q23 -31 23 -59q0 -42 -26.5 -76t-79.5 -34q-45 0 -69.5 33.5t-26.5 76.5q-2 58 61.5 91.5t161.5 33.5q39 0 85.5 -17t78.5 -37l53 245q-17 32 -72.5 53.5
t-91.5 21.5q-18 0 -31 -3q23 -31 23 -59q1 -41 -26 -75.5t-80 -34.5q-45 0 -69.5 33t-26.5 76q-1 58 62 91.5t161 33.5q40 0 89 -18.5t79 -37.5l70 326h62l-71 -328q88 26 153 12z" />
    <glyph glyph-name="bullet" unicode="&#x2022;" 
d="M618 401q-86 0 -149 62.5t-63 144.5q0 85 63 147t149 62t146.5 -61.5t60.5 -147.5q0 -82 -61.5 -144.5t-145.5 -62.5z" />
    <glyph glyph-name="ellipsis" unicode="&#x2026;" 
d="M106 -26q-57 0 -98 40.5t-41 94.5q0 56 41 96.5t98 40.5q56 0 95 -40.5t39 -96.5q0 -55 -39 -95t-95 -40zM545 -26q-57 0 -98 40.5t-41 94.5q0 56 41 96.5t98 40.5q56 0 94.5 -40.5t38.5 -96.5q0 -55 -38.5 -95t-94.5 -40zM981 -26q-57 0 -98 40.5t-41 94.5q0 56 41 96.5
t98 40.5q56 0 94.5 -40.5t38.5 -96.5q0 -55 -38.5 -95t-94.5 -40z" />
    <glyph glyph-name="perthousand" unicode="&#x2030;" 
d="M649 965q-22 0 -76 16l-6 -4q-4 -84 -42 -164t-112.5 -136t-166.5 -56q-64 0 -110 52t-46 126q0 154 94.5 263t227.5 109q47 0 87.5 -31.5t57.5 -82.5l2 -2q45 -22 92 -25q73 -6 135 44.5t127 156.5l54 -31l-867 -1466l-53 30l725 1231q-70 -30 -123 -30zM504 995
q0 47 -27 80t-65 33q-106 0 -182 -90.5t-76 -218.5q0 -47 27.5 -81t64.5 -34q106 0 182 91t76 220zM817 526q64 0 110 -52t46 -124q0 -155 -94 -266t-226 -111q-66 0 -111.5 52t-45.5 125q0 154 94.5 265t226.5 111zM1284 526q64 0 110 -52t46 -124q0 -155 -94 -266
t-226 -111q-66 0 -111.5 52t-45.5 125q0 154 94.5 265t226.5 111zM817 461q-107 0 -182.5 -90.5t-75.5 -220.5q0 -46 28 -78.5t66 -32.5q107 0 182.5 90.5t75.5 220.5q0 46 -28 78.5t-66 32.5zM1284 461q-107 0 -182.5 -90.5t-75.5 -220.5q0 -46 28 -78.5t66 -32.5
q107 0 182.5 90.5t75.5 220.5q0 46 -28 78.5t-66 32.5z" />
    <glyph glyph-name="guilsinglleft" unicode="&#x2039;" 
d="M876 871l-412 -360l259 -358l-53 -41l-295 402l459 403z" />
    <glyph glyph-name="guilsinglright" unicode="&#x203a;" 
d="M350 159l412 359l-258 358l52 41l296 -402l-459 -403z" />
    <glyph glyph-name="fraction" unicode="&#x2044;" 
d="M1049 1235l41 -27l-883 -1235l-41 29z" />
    <glyph glyph-name="Euro" unicode="&#x20ac;" 
d="M1186 971q65 -3 78 -32q8 95 -60.5 163.5t-221.5 69.5q-155 1 -286.5 -103t-212.5 -273h444l-13 -61h-457q-24 -61 -39 -126h481l-12 -61h-481q-11 -63 -12 -125q2 -176 107.5 -282.5t283.5 -106.5q129 0 252.5 92t185.5 216l54 -30q-87 -153 -218 -246t-279 -93
q-200 0 -322.5 124t-122.5 328q0 55 10 123h-229l12 61h227q13 61 35 126h-247l12 61h260q84 195 234 317t328 121q162 -1 260 -79.5t99 -223.5q1 -79 -42 -134t-106 -60q-42 -4 -81.5 27.5t-36.5 93.5q2 45 38.5 80t77.5 33z" />
    <glyph glyph-name="uni2116" unicode="&#x2116;" 
d="M541 205l123 1028h57l-133 -1260h-60l-264 1080l-131 -1080h-59l151 1260h56zM965 547q-67 0 -115.5 77t-48.5 183q0 172 79 296t189 124q70 0 121 -77.5t51 -184.5q0 -172 -80.5 -295t-195.5 -123zM1067 1178q-83 0 -143 -109.5t-60 -261.5q0 -82 32.5 -144.5
t76.5 -62.5q86 0 144.5 105.5t58.5 259.5q0 88 -31.5 150.5t-77.5 62.5zM834 479h311l-12 -61h-312z" />
    <glyph glyph-name="trademark" unicode="&#x2122;" 
d="M473 1169l23 -190l39 4l-25 225h-416l-24 -225l39 -4l22 190h152v-333h-105v-39h248v39h-104v333h151zM1010 1208l-144 -274l-143 274h-150v-39h97v-333h-97v-39h209v39h-73v319l139 -270h37l139 270v-319h-74v-39h209v39h-96v333h96v39h-149z" />
    <glyph glyph-name="arrowleft" unicode="&#x2190;" 
d="M29 418v41q294 143 411 352l45 -35q-53 -97 -150 -185.5t-183 -121.5l1048 -2v-61l-1048 2q86 -33 183 -122t150 -186l-45 -34q-117 209 -411 352z" />
    <glyph glyph-name="arrowup" unicode="&#x2191;" 
d="M594 1171h41q143 -294 352 -411l-35 -45q-97 53 -185.5 150.5t-121.5 183.5l-2 -1049h-61l2 1049q-33 -86 -122 -183.5t-186 -150.5l-34 45q209 117 352 411z" />
    <glyph glyph-name="arrowright" unicode="&#x2192;" 
d="M1200 459v-41q-295 -144 -412 -352l-45 34q53 97 150.5 186t183.5 122l-1048 -2v61l1048 2q-86 33 -183.5 121.5t-150.5 185.5l45 35q117 -208 412 -352z" />
    <glyph glyph-name="arrowdown" unicode="&#x2193;" 
d="M635 0h-41q-144 295 -352 412l34 45q97 -53 186 -150.5t122 -183.5l-2 1048h61l2 -1048q33 86 121.5 183.5t185.5 150.5l35 -45q-208 -117 -352 -412z" />
    <glyph glyph-name="uni2196" unicode="&#x2196;" 
d="M203 823l28 29q307 -111 541 -43l6 -55q-117 -31 -242.5 -25.5t-209.5 43.5l739 -743l-43 -43l-739 743q37 -83 42.5 -212.5t-24.5 -242.5l-57 9q65 234 -41 540z" />
    <glyph glyph-name="uni2197" unicode="&#x2197;" 
d="M997 854l29 -29q-106 -306 -41 -540l-57 -9q-30 113 -24.5 242.5t42.5 212.5l-739 -743l-43 43l739 743q-84 -38 -209.5 -43.5t-242.5 25.5l6 55q234 -67 540 43z" />
    <glyph glyph-name="uni2198" unicode="&#x2198;" 
d="M1032 35l-28 -29q-306 107 -541 41l-8 57q113 30 242 24.5t212 -42.5l-743 739l43 43l743 -739q-38 84 -43.5 210t25.5 243l55 -7q-67 -234 43 -540z" />
    <glyph glyph-name="uni2199" unicode="&#x2199;" 
d="M225 6l-28 29q110 306 43 540l55 7q31 -118 25 -243.5t-44 -209.5l744 739l43 -43l-744 -739q83 37 212.5 42.5t242.5 -24.5l-8 -57q-235 66 -541 -41z" />
    <glyph glyph-name="partialdiff" unicode="&#x2202;" 
d="M424 1176l14 59l62 -16q275 -73 409.5 -274t134.5 -503q0 -205 -117 -338t-302 -133q-107 0 -199.5 53.5t-148.5 150.5t-56 216q0 167 116 288.5t277 121.5q115 0 213 -54.5t156 -148.5q-77 447 -500 561zM983 422q0 127 -111 222t-258 95q-137 0 -234 -100.5t-97 -247.5
q0 -154 102 -256t240 -102q157 0 257.5 114.5t100.5 274.5z" />
    <glyph glyph-name="product" unicode="&#x220f;" 
d="M154 1147h155v-1475h62v1475h489v-1475h62v1475h155v61h-923v-61z" />
    <glyph glyph-name="summation" unicode="&#x2211;" 
d="M616 440l-448 -706v-62h950v62h-878l452 706l-450 707h876v61h-950v-61z" />
    <glyph glyph-name="minus" unicode="&#x2212;" 
d="M1059 410v61h-881v-61h881z" />
    <glyph glyph-name="radical" unicode="&#x221a;" 
d="M246 420l20 -58l264 95l183 -785h100l365 1549l-60 14l-354 -1503l-189 805z" />
    <glyph glyph-name="infinity" unicode="&#x221e;" 
d="M139 51q-84 78 -84 185t82.5 186.5t196.5 79.5q74 0 138.5 -52t141.5 -161q77 109 142 161t139 52q114 0 196.5 -79.5t82.5 -186.5q0 -105 -84 -184t-195 -79q-53 0 -107 31t-88 72q-27 31 -86 106q-7 -9 -22.5 -29.5t-21 -27t-17.5 -22t-17 -21t-15.5 -16.5t-17.5 -17
t-17 -14.5t-20 -15t-22 -13.5q-50 -33 -110 -33q-111 0 -195 78zM117 236q0 -79 67 -140t152 -61q40 0 85 29.5t79 70.5q38 47 78 103q-52 72 -82 107t-72 65q-47 30 -88 30q-87 0 -153 -60t-66 -144zM651 238q52 -72 82 -106.5t72 -63.5q44 -33 88 -33q85 0 152 61t67 140
q0 84 -66 144t-153 60q-40 0 -85 -29.5t-79 -70.5q-45 -56 -78 -102z" />
    <glyph glyph-name="integral" unicode="&#x222b;" 
d="M1030 1234q68 -1 124 -27t89.5 -66t51 -86.5t15.5 -91.5q-1 -57 -26.5 -80t-57.5 -23q-39 0 -69.5 20t-30.5 59q0 38 13 63.5t30.5 33.5t35.5 11t29 -3q-2 37 -64 81t-138 47q-110 3 -209 -96q-63 -63 -94 -148t-75 -304q-5 -24 -91 -501q-21 -111 -47 -188.5
t-67.5 -139.5t-102 -92t-142.5 -30q-102 0 -172 60.5t-66 163.5q2 50 25 76.5t66 26.5q47 0 69.5 -18.5t23.5 -60.5q3 -67 -29.5 -90t-68.5 -18q37 -84 152 -81q72 2 123 29t84 82.5t53 119.5t37 160l91 501q40 229 77 324t115 173q116 116 246 113z" />
    <glyph glyph-name="approxequal" unicode="&#x2248;" 
d="M815 489q-76 0 -126 45t-95 144q-43 94 -82 131t-94 37q-75 0 -122.5 -71t-47.5 -191v-72h-62v72q0 153 62.5 238t169.5 85q84 0 135 -47t96 -153q37 -89 72 -122.5t94 -33.5q74 0 117 68.5t43 191.5v70h61v-70q0 -157 -57.5 -239.5t-163.5 -82.5zM815 35q-76 0 -126 45
t-95 143q-43 94 -82 131t-94 37q-75 0 -122.5 -71t-47.5 -191v-72h-62v72q0 153 62.5 238.5t169.5 85.5q84 0 135 -47.5t96 -153.5q37 -89 72 -122.5t94 -33.5q74 0 117 68.5t43 191.5v70h61v-70q0 -157 -57 -239t-164 -82z" />
    <glyph glyph-name="notequal" unicode="&#x2260;" 
d="M1087 606h-374l-121 -332h495v-61h-518l-86 -240l-57 23l78 217h-363v61h385l119 332h-504v62h527l73 204l60 -20l-68 -184h354v-62z" />
    <glyph glyph-name="lessequal" unicode="&#x2264;" 
d="M176 760v-78l858 -317l21 55l-819 301l819 301l-21 55zM1055 70v61h-881v-61h881z" />
    <glyph glyph-name="greaterequal" unicode="&#x2265;" 
d="M176 760v-78l858 -317l21 55l-819 301l819 301l-21 55zM1055 70v61h-881v-61h881z" />
    <glyph glyph-name="lozenge" unicode="&#x25ca;" 
d="M276 604l308 -631h67l303 631l-303 631h-67zM344 604l272 565l271 -565l-271 -565z" />
    <glyph glyph-name="uniF8FF" unicode="&#xf8ff;" 
d="M649 0q-122 0 -233 48t-191.5 128.5t-128 192t-47.5 233.5q0 163 81 302.5t219 221t300 81.5q163 0 303 -81.5t222 -221t82 -302.5t-82 -302t-222 -219.5t-303 -80.5z" />
    <glyph glyph-name="fi" unicode="&#xfb01;" horiz-adv-x="2457" 
d="M1030 1234q90 -1 157 -46.5t97 -110.5t27 -135q-1 -46 -30 -72t-66 -28q-41 -2 -74.5 28t-32.5 70q1 68 47 91.5t79 12.5q-3 38 -64.5 81.5t-137.5 46.5q-107 4 -209 -96q-49 -48 -77 -106.5t-55 -170.5h361l-15 -62h-360q-20 -96 -23 -113q-8 -38 -91 -501
q-16 -88 -35.5 -154.5t-48.5 -124t-66.5 -93.5t-90 -57t-118.5 -21q-101 -1 -166.5 59.5t-62.5 164.5q2 51 29.5 84t74.5 34q35 1 68 -24t34 -67q1 -68 -43 -96t-86 -15q35 -84 152 -81q58 2 102.5 21.5t74.5 51t53.5 83t38 105t28.5 130.5l91 501q5 32 22 113h-304l14 62
h303q29 127 62 194t95 128q116 114 246 113zM1910 1004q-43 -2 -73 29.5t-32 74.5q-2 42 29.5 74t75.5 31q43 -1 76.5 -32.5t29.5 -72.5q-3 -42 -32 -72t-74 -32zM2204 165l40 -47q-89 -74 -197.5 -112.5t-200 -35t-154 55.5t-63.5 146q0 55 34.5 143t76.5 164.5t78.5 156
t39.5 118.5q6 84 -80 87q-83 2 -192 -61q-52 -30 -84 -62l-39 48q91 78 198 117.5t185 11.5t73 -136q-2 -42 -59.5 -161.5t-114.5 -242.5t-57 -176q-1 -76 52.5 -113t132 -33t169 39t162.5 93z" />
    <glyph glyph-name="fl" unicode="&#xfb02;" horiz-adv-x="2457" 
d="M1030 1234q90 -1 157 -46.5t97 -110.5t27 -135q-1 -46 -30 -72t-66 -28q-41 -2 -74.5 28t-32.5 70q1 68 47 91.5t79 12.5q-3 38 -64.5 81.5t-137.5 46.5q-107 4 -209 -96q-49 -48 -77 -106.5t-55 -170.5h361l-15 -62h-360q-20 -96 -23 -113q-8 -38 -91 -501
q-16 -88 -35.5 -154.5t-48.5 -124t-66.5 -93.5t-90 -57t-118.5 -21q-101 -1 -166.5 59.5t-62.5 164.5q2 51 29.5 84t74.5 34q35 1 68 -24t34 -67q1 -68 -43 -96t-86 -15q35 -84 152 -81q58 2 102.5 21.5t74.5 51t53.5 83t38 105t28.5 130.5l91 501q5 32 22 113h-304l14 62
h303q29 127 62 194t95 128q116 114 246 113zM2184 214l52 -32q-66 -102 -139.5 -156t-167.5 -53q-28 0 -53.5 5.5t-54 18.5t-48 37.5t-32 59.5t-9.5 88.5t22 119.5l192 664q31 92 23 148.5t-67 57.5q-73 1 -190 -65.5t-169 -143.5l-35 45q50 85 175.5 155t222.5 66
q51 -2 82.5 -27t42.5 -79.5t-16 -141.5l-195 -674q-20 -70 -23 -122t6 -80.5t30.5 -45t44 -21t51.5 -4.5q142 1 255 180z" />
    <glyph glyph-name="L.ss01" 
d="M1113 437l67 -7l-81 -430h-942l13 61h162l219 1087h-120q-50 0 -92.5 -10t-69.5 -25.5t-44.5 -36t-17.5 -41.5t11 -42l31 -49l-46 -42l-37 56q-20 31 -22 65t16 66.5t51.5 59t89 43t124.5 17.5h563l-12 -61h-362l-218 -1087h646z" />
    <glyph glyph-name="Lacute.ss01" 
d="M1030 1462l-642 -155l-10 42l635 189zM1113 437l67 -7l-81 -430h-942l13 61h162l219 1087h-120q-50 0 -92.5 -10t-69.5 -25.5t-44.5 -36t-17.5 -41.5t11 -42l31 -49l-46 -42l-37 56q-20 31 -22 65t16 66.5t51.5 59t89 43t124.5 17.5h563l-12 -61h-362l-218 -1087h646z
" />
    <glyph glyph-name="Lcaron.ss01" 
d="M1196 1512l-474 -216l-369 216l13 27l356 -170l462 170zM1042 61l71 376l67 -7l-81 -430h-942l13 61h162l219 1087h-120q-50 0 -92.5 -10t-69.5 -25.5t-44.5 -36t-17.5 -41.5t11 -42l31 -49l-46 -42l-37 56q-20 31 -22 65t16 66.5t51.5 59t89 43t124.5 17.5h563l-12 -61
h-362l-218 -1087h646z" />
    <glyph glyph-name="Lslash.ss01" 
d="M1113 437l67 -7l-81 -430h-942l13 61h162l100 497l-260 -128l-25 54l300 147l104 517h-120q-50 0 -92.5 -10t-69.5 -25.5t-44.5 -36t-17.5 -41.5t11 -42l31 -49l-46 -42l-37 56q-20 31 -22 65t16 66.5t51.5 59t89 43t124.5 17.5h563l-12 -61h-362l-97 -482l220 108
l25 -54l-259 -127l-107 -532h646z" />
    <glyph glyph-name="question.001" 
d="M489 -25q-56 0 -95.5 40t-39.5 96q0 57 39.5 97t95.5 40q57 0 97.5 -40t40.5 -97q0 -56 -40.5 -96t-97.5 -40z" />
    <glyph glyph-name="underscore.001" 
d="M993 -170v102h-737v-102h737z" />
    <glyph glyph-name="MadameMonsieur" 
d="M1096 209l49 -35q-6 -8 -32.5 -45t-33.5 -45q-15 -20 -30 -35q-21 -31 -55 -52q-4 -3 -6 -4q-31 -20 -74 -20q-50 -2 -75 48t-8 134l142 811l-413 -966h-64l168 927l-145 -367q-152 -385 -209 -474q-65 -102 -153 -111q-10 -2 -29 -2q-78 -3 -127.5 55t-47.5 144
q2 80 48 140t112 59q42 0 78.5 -35t34.5 -78t-36.5 -73.5t-73.5 -27.5q-36 2 -60.5 27t-28.5 69q-37 -80 -4.5 -150t110.5 -69q80 0 140 106q41 71 191 442l251 627h62l-170 -956l408 956h61l-186 -1066q-20 -113 34 -111q31 2 69 44q25 26 103 133z" />
    <glyph glyph-name="Swash" 
d="M757 1209h88v-61h-88q-50 0 -92.5 -10t-69.5 -25.5t-45 -36t-18 -41.5t11 -42l32 -49l-47 -42l-36 56q-20 31 -22 65.5t16.5 67t52.5 59t91 43t127 16.5z" />
    <glyph glyph-name="Femme" 
d="M645 301v-158h410v-61h-410v-410h-61v410h-410v61h410v160q-185 12 -311 145.5t-126 321.5q0 126 62.5 233t170.5 169.5t236 62.5q194 0 330.5 -136.5t136.5 -328.5q0 -188 -126.5 -322.5t-311.5 -146.5zM209 770q0 -170 118.5 -289t288.5 -119q168 0 287 119t119 289
q0 167 -119.5 285.5t-286.5 118.5q-170 0 -288.5 -118t-118.5 -286z" />
    <glyph glyph-name="Homme" 
d="M1178 1180l28 -29q-107 -306 -41 -541l-57 -8q-30 113 -24.5 242.5t42.5 212.5l-235 -238q91 -63 141.5 -162.5t50.5 -214.5q0 -196 -136 -332.5t-331 -136.5t-332 136.5t-137 332.5q0 126 62.5 233t170.5 169.5t236 62.5q118 0 222 -55l245 248q-84 -38 -209 -44
t-243 25l6 56q234 -68 541 43zM1022 442q0 167 -119.5 285.5t-286.5 118.5q-170 0 -288.5 -118t-118.5 -286q0 -170 118.5 -288.5t288.5 -118.5q168 0 287 118.5t119 288.5z" />
    <glyph glyph-name="VTF" 
d="M1132 1228q133 -2 209 -91t72 -200q-1 -46 -30 -72t-66 -28q-41 -2 -74.5 28t-32.5 70q1 68 47 91.5t79 12.5q-3 38 -64.5 81.5t-137.5 46.5q-109 4 -209 -96q-63 -63 -93.5 -147.5t-75.5 -304.5l-2 -6h292l-15 -61h-288q-29 -129 -32 -225q12 -74 33 -194
q53 -97 199 -99q143 -2 267 133l40 -49q-144 -144 -307 -145q-114 0 -175 42q34 -142 96 -213.5t180 -74.5t153 81q-43 -13 -87 15t-43 96q1 42 33.5 66.5t68.5 23.5q47 -1 75 -34t30 -84q3 -104 -63 -164t-167 -59q-66 0 -118 21t-89 57t-66 94t-48 123t-37 154q-1 5 -3 17
q-6 16 -8 25q-3 -16 -7 -25q-2 -12 -3 -17q-22 -112 -48.5 -188.5t-67.5 -138.5t-101 -92t-142 -30q-101 -1 -166.5 59t-62.5 164q2 51 29.5 84t74.5 34q36 1 68.5 -23.5t33.5 -66.5q1 -68 -43 -96t-86 -15q35 -84 152 -81q118 3 180 74.5t96 213.5q-62 -42 -175 -42
q-162 1 -306 145l39 49q124 -135 267 -133q147 2 199 99q3 19 15.5 87.5t18.5 103.5q-3 93 -33 228h-288l-14 61h291l-1 6q-45 219 -76 304t-94 148q-100 100 -209 96q-76 -3 -137 -46.5t-64 -81.5q11 6 32 2.5t41.5 -11.5t36.5 -33.5t16 -61.5q1 -40 -32.5 -70t-74.5 -28
q-38 2 -67 28t-30 72q-3 70 27.5 135t97.5 110t157 46q129 1 245 -113q75 -74 118 -190t80 -312h28q37 198 79 313t117 189q116 114 246 113z" />
    <glyph glyph-name="swash2" 
d="M614 686q16 61 17 97t-10 49.5t-34 12.5q-26 -2 -81.5 -25t-117.5 -58l-29 54q151 87 231 91q69 2 90 -48t-4 -173h-62z" />
    <glyph glyph-name="sfd" 
d="M291 535q-38 -87 -124.5 -185t-182.5 -151l-35 45q209 115 352 411h41q143 -296 352 -411l-35 -45q-98 54 -186.5 152.5t-120.5 183.5q-10 -39 -10 -93q0 -170 119.5 -288.5t288.5 -118.5q168 0 286.5 118.5t118.5 288.5q0 167 -119 285.5t-286 118.5q-138 0 -252 -86
l-39 47q127 100 291 100q194 0 330.5 -136t136.5 -329q0 -196 -136.5 -332.5t-330.5 -136.5q-195 0 -332 136.5t-137 332.5q0 57 10 93z" />
  </font>
</defs>
</svg>
